<svg width="292" height="519" viewBox="0 0 292 519" fill="none" xmlns="http://www.w3.org/2000/svg">
<path d="M77.7367 336.61C72.9851 335.726 71.961 334.399 71.4284 333.416C70.773 331.736 71.5102 329.811 73.0667 328.459C74.3119 327.378 78.1458 326.725 79.9072 326.534C80.8493 325.769 83.4216 324.477 86.1743 325.428C88.9269 326.378 88.1951 328.063 87.4852 328.786L89.5333 330.22C91.8272 331.825 93.0835 334.739 93.4249 335.995C94.49 337.961 94.777 343.655 94.8999 344.351C95.0228 345.048 98.7504 345.826 100.266 346.276C101.782 346.727 103.133 348.283 101.7 350.331C100.553 351.97 98.7097 351.697 97.9314 351.356L97.3579 352.175C96.4405 353.486 94.4906 352.202 93.6304 351.397C92.0738 350.714 88.8951 348.571 88.6328 345.458C88.3705 342.345 86.6665 340.419 85.8472 339.846C85.3885 340.501 84.3453 340.829 83.8811 340.911C80.4403 340.944 78.3512 338.058 77.7367 336.61Z" fill="white"/>
<path d="M100.405 348.842C100.392 348.974 100.331 349.163 100.115 349.32C99.3626 349.865 97.1453 349.638 96.0537 349.47C96.1211 349.53 96.2113 349.595 96.3302 349.663C96.4199 349.712 96.6944 349.866 96.6677 350.138C96.6617 350.199 96.6205 350.404 96.3373 350.476C95.9828 350.567 95.1501 350.435 94.7498 349.851C94.6873 349.76 94.553 349.693 94.3652 349.599C93.5169 349.174 91.94 348.383 90.1355 342.59C90.0529 342.388 88.4165 338.581 83.4424 336.858C83.9633 337.432 84.5127 338.169 84.4626 338.68C84.4491 338.817 84.3987 338.938 84.3119 339.036C84.1575 339.212 83.5054 339.7 81.5892 338.608C81.4439 338.534 80.3306 337.898 78.9283 335.247C78.8011 335.126 78.1156 334.97 77.5661 334.845C75.7101 334.42 72.908 333.778 72.9465 331.614C72.947 331.569 72.9495 331.523 72.9539 331.479C73.0084 330.923 73.3342 330.416 73.9203 329.972C75.5619 328.725 78.8118 328.266 80.3617 328.486C80.9626 328.068 84.0057 326.074 85.3766 327.609C85.3921 327.627 85.4057 327.646 85.417 327.669C85.4347 327.705 85.4952 327.836 85.4764 328.028C85.4254 328.548 84.8987 328.938 83.9065 329.192C85.7236 329.838 89.1878 331.465 90.8733 334.889C93.1398 339.496 93.0079 343.537 93.001 343.707C93.0004 343.712 92.9998 343.718 92.9993 343.724C92.9982 343.735 92.997 343.747 92.994 343.758C92.9936 343.762 92.9893 343.786 92.9855 343.825C92.9456 344.232 92.9972 345.635 95.3244 346.591C96.566 347.101 97.5883 347.326 98.4084 347.507C99.5442 347.758 100.294 347.924 100.401 348.689C100.409 348.742 100.41 348.796 100.404 348.848L100.405 348.842Z" fill="url(#paint0_linear_65_91)" fill-opacity="0.3"/>
<path d="M100.405 348.842C100.392 348.974 100.331 349.163 100.115 349.32C99.3626 349.865 97.1453 349.638 96.0537 349.47C96.1211 349.53 96.2113 349.595 96.3302 349.663C96.4199 349.712 96.6944 349.866 96.6677 350.138C96.6617 350.199 96.6205 350.404 96.3373 350.476C95.9828 350.567 95.1501 350.435 94.7498 349.851C94.6873 349.76 94.553 349.693 94.3652 349.599C93.5169 349.174 91.94 348.383 90.1355 342.59C90.0529 342.388 88.4165 338.581 83.4424 336.858C83.9633 337.432 84.5127 338.169 84.4626 338.68C84.4491 338.817 84.3987 338.938 84.3119 339.036C84.1575 339.212 83.5054 339.7 81.5892 338.608C81.4439 338.534 80.3306 337.898 78.9283 335.247C78.8011 335.126 78.1156 334.97 77.5661 334.845C75.7101 334.42 72.908 333.778 72.9465 331.614C72.947 331.569 72.9495 331.523 72.9539 331.479C73.0084 330.923 73.3342 330.416 73.9203 329.972C75.5619 328.725 78.8118 328.266 80.3617 328.486C80.9626 328.068 84.0057 326.074 85.3766 327.609C85.3921 327.627 85.4057 327.646 85.417 327.669C85.4347 327.705 85.4952 327.836 85.4764 328.028C85.4254 328.548 84.8987 328.938 83.9065 329.192C85.7236 329.838 89.1878 331.465 90.8733 334.889C93.1398 339.496 93.0079 343.537 93.001 343.707C93.0004 343.712 92.9998 343.718 92.9993 343.724C92.9982 343.735 92.997 343.747 92.994 343.758C92.9936 343.762 92.9893 343.786 92.9855 343.825C92.9456 344.232 92.9972 345.635 95.3244 346.591C96.566 347.101 97.5883 347.326 98.4084 347.507C99.5442 347.758 100.294 347.924 100.401 348.689C100.409 348.742 100.41 348.796 100.404 348.848L100.405 348.842Z" fill="black" fill-opacity="0.2"/>
<path d="M96.0214 339.66C96.5693 338.083 95.9945 334.503 93.4286 332.707" stroke="white" stroke-linecap="round"/>
<path d="M99.4076 341.42C100.215 338.7 98.8057 332.334 94.0368 328.895" stroke="white" stroke-linecap="round"/>
<path d="M89.5 315C77.9 216.2 104.667 80.5 125 29.5L128.316 20.9934C131.269 13.4198 141.569 13.4642 144.061 21.2012C162.496 78.4183 187.954 192.224 189 258.5C188.667 281.333 186 329.1 184 347.5C183.333 350 184 353 196 350.5L215 347.5C218.167 342.833 227 331.9 243 329.5C263 326.5 270 327.5 272.5 327.5C275 327.5 284.5 341.5 276.5 356C273.189 359.01 259.872 362.864 236.403 365.644C231.468 366.229 226.803 363.758 222.356 361.538C221.103 360.912 219.784 360.5 218.5 360.5C213.5 360.5 180.5 366.5 180.5 370C180.5 373.5 177.217 398.688 175 407C173 414.5 152 493.5 149 505C146.6 514.2 141.5 518.333 139.5 519C127.5 516.6 109.667 429.667 100 386L80.5 389.5C79.8334 391.333 77.4 395.4 73 397C67.5 399 40 409.5 31 410C22 410.5 19.5 403 15 394C14.2858 392.572 13.8549 391.29 13.6349 390.135C12.4098 383.705 19.2929 379.051 25.3335 376.53C30.5069 374.371 37.6309 371.947 46.5 370C67 365.5 68 374.5 76.5 374.5C83.3 374.5 100.5 370 97.5 370C95.5 360.8 91.3334 328.167 89.5 315Z" fill="white"/>
<path d="M133 29.0329C107.931 109.728 100.66 167.581 99.5702 186.55L174.292 184.832C171.422 147.606 141.348 34.6959 138.668 29.0329C136.525 24.5025 133.604 27.2312 133 29.0329Z" fill="url(#paint1_linear_65_91)" stroke="#461638" stroke-width="2"/>
<path d="M123.851 90.8305C112.206 112.198 104.674 161.635 102.766 183.228L170.941 182.136C167.989 163.769 160.612 124.979 157.5 116.387C152.248 101.887 138.406 64.1213 123.851 90.8305Z" fill="url(#paint2_linear_65_91)" stroke="black"/>
<path d="M99.5415 187.049C96.1131 204.882 94.7462 244.368 95.1541 263.423L181.356 262.372L181.328 261.362C180.107 219.803 176.119 193.388 174.263 185.332L99.5415 187.049Z" fill="#EEE5D4"/>
<path d="M181.357 262.365C181.347 262.03 181.338 261.695 181.328 261.362M181.328 261.362C180.107 219.803 176.119 193.388 174.263 185.332L99.5415 187.049C96.1131 204.882 94.7462 244.368 95.1541 263.423L181.356 262.372C181.347 262.033 181.337 261.696 181.328 261.362Z" stroke="#461638" stroke-width="2"/>
<path d="M95.1541 263.423C93.4837 278.552 96.7544 316.936 98.5985 334.237L179.281 333.363C181.686 305.455 181.648 274.736 181.328 262.864L95.1541 263.423Z" fill="#EEE5D4" stroke="#461638" stroke-width="2"/>
<path d="M110.202 402.515C113.199 413.104 129.411 472.065 137.143 500.221C139.714 509.584 143.103 500.396 144.475 494.632C149.958 474.747 162.074 430.636 166.678 413.272C171.281 395.907 176.979 353.097 179.253 333.862L98.5985 334.237C98.7536 340.256 106.455 389.278 110.202 402.515Z" fill="url(#paint3_linear_65_91)" stroke="#461638" stroke-width="2"/>
<path d="M102.5 193.387C101.013 205.321 99.3285 241.454 99 258.797L175.5 258.797C177.409 246.486 174.205 208.736 171.5 191.887L102.5 193.387Z" fill="url(#paint4_linear_65_91)" stroke="black"/>
<path d="M98.9468 267.147C97.5798 297.919 101.168 321.101 103 329.887L173.5 329.887C177.566 314.895 177.723 282.023 176.577 267.099L98.9468 267.147Z" fill="url(#paint5_linear_65_91)" stroke="black"/>
<path d="M152.989 451.049L126.446 451.027C113.327 407.402 106.198 358.88 104.273 340.072L173.888 340.065C170.681 381.95 158.619 431.506 152.989 451.049Z" fill="url(#paint6_linear_65_91)" stroke="black"/>
<path d="M120.999 396.387L122.352 409.987C122.473 411.196 124.709 411.625 125.813 411.689C133.407 411.624 149.446 411.544 152.851 411.739C156.255 411.935 156.295 409.6 155.889 408.408C155.796 405.899 155.508 400.173 155.101 397.345C154.694 394.517 152.228 393.674 151.046 393.606L126.874 393.219C121.177 393.292 120.583 395.362 120.999 396.387Z" fill="#EEE5D4" stroke="black"/>
<path d="M118.999 161.387L120.352 174.987C120.473 176.196 122.709 176.625 123.813 176.689C131.407 176.624 147.446 176.544 150.851 176.739C154.255 176.935 154.295 174.6 153.889 173.408C153.796 170.899 153.508 165.173 153.101 162.345C152.694 159.517 150.228 158.674 149.046 158.606L124.874 158.219C119.177 158.292 118.583 160.362 118.999 161.387Z" fill="#EEE5D4" stroke="black"/>
<path d="M143.263 498.289C141.477 497.412 137.768 496.3 137.22 498.872C136.535 502.087 128.994 502.584 130.924 486.422C132.854 470.26 153.693 464.949 153.679 447.746C153.666 430.543 147.236 420.41 133.572 422.879C119.908 425.349 119.13 447.621 140.202 446.971C161.273 446.322 150.6 419.673 137.433 425.426C124.265 431.178 132.687 447.005 141.965 442.423C151.243 437.842 146.178 430.112 141.107 431.216" stroke="url(#paint7_linear_65_91)" stroke-width="2" stroke-linecap="round"/>
<g filter="url(#filter0_d_65_91)">
<path d="M215.61 352.562L74.9495 381.128C72.1172 381.18 68.7608 378.003 66.4269 377.077C63.8175 376.041 57.1248 375.841 54.547 376.381L31.7532 381.065C29.5054 381.624 24.8635 383.621 24.2781 387.139C23.5464 391.537 26.6694 398.133 30.0029 400.795C32.6696 402.924 38.0264 402.416 40.3715 401.895C46.8822 400.238 61.0771 396.517 65.7717 394.897C71.6399 392.873 71.3386 391.079 72.9551 388.707C74.2483 386.81 75.7519 385.635 76.6042 385.467L217.202 356.207C218.153 356.086 219.456 355.293 223.381 357.654C227.307 360.015 231.665 360.606 233.353 360.606C242.33 359.257 261.074 356.27 264.234 355.113C267.394 353.956 268.749 350.543 269.031 348.981C269.351 347.322 269.591 342.975 267.984 338.855C266.377 334.735 260.041 334.476 257.075 334.862C253.118 335.189 243.263 336.48 235.5 339.025C225.797 342.206 223.544 345.33 221.177 348.744C219.283 351.474 216.676 352.427 215.61 352.562Z" fill="#CC6FB1"/>
</g>
<path d="M216.397 351.992L216.37 351.995L216.333 352.003L73.6698 381.551C73.2468 381.536 72.6844 381.336 71.9693 380.9C71.2268 380.448 70.4354 379.815 69.6168 379.113C69.306 378.846 68.9829 378.562 68.6592 378.277C68.1651 377.842 67.6698 377.407 67.2149 377.031C66.4634 376.409 65.6637 375.811 64.9109 375.513C63.4208 374.922 60.9158 374.611 58.5531 374.503C56.1758 374.394 53.7235 374.483 52.2875 374.789C52.2866 374.789 52.2857 374.789 52.2848 374.789L29.1534 379.636L29.1333 379.64L29.1133 379.645C27.8833 379.956 26.0236 380.655 24.3715 381.765C22.7378 382.863 21.1407 384.478 20.7719 386.671C20.3495 389.183 21.0226 392.193 22.1752 394.862C23.3309 397.538 25.0459 400.05 26.8991 401.537C28.5065 402.826 30.8115 403.244 32.8666 403.316C34.9587 403.39 36.999 403.11 38.2598 402.825L38.2749 402.821L38.2899 402.817C44.8808 401.111 59.3395 397.26 64.1551 395.576C67.2174 394.506 68.8169 393.451 69.8535 392.242C70.3625 391.649 70.7062 391.051 71.0102 390.492C71.0614 390.398 71.1112 390.305 71.1604 390.214C71.4098 389.751 71.6428 389.318 71.9572 388.855C72.571 387.951 73.2252 387.232 73.8082 386.729C74.423 386.199 74.8614 385.992 75.0378 385.957L75.0485 385.954L217.716 355.684C217.955 355.651 218.14 355.61 218.31 355.571C218.65 355.495 218.929 355.432 219.463 355.477C220.207 355.541 221.383 355.862 223.292 357.014C227.456 359.526 232.064 360.146 233.918 360.141L233.993 360.141L234.067 360.129C238.626 359.427 245.666 358.299 251.97 357.197C255.122 356.647 258.095 356.102 260.484 355.619C262.84 355.143 264.713 354.711 265.603 354.381C267.47 353.689 268.772 352.341 269.634 350.999C270.49 349.665 270.954 348.274 271.122 347.356C271.478 345.524 271.74 340.893 270.04 336.48C269.058 333.93 266.655 332.688 264.341 332.12C262.017 331.55 259.541 331.591 257.944 331.801C253.878 332.153 243.814 333.509 235.841 336.159C230.849 337.819 227.698 339.482 225.472 341.22C223.236 342.965 221.987 344.747 220.776 346.501L220.737 346.557C219.772 347.954 218.806 349.351 217.952 350.417C217.523 350.951 217.146 351.372 216.831 351.659C216.528 351.935 216.389 351.987 216.391 351.992C216.391 351.992 216.393 351.992 216.397 351.992Z" fill="url(#paint8_linear_65_91)"/>
<path d="M216.397 351.992L216.37 351.995L216.333 352.003L73.6698 381.551C73.2468 381.536 72.6844 381.336 71.9693 380.9C71.2268 380.448 70.4354 379.815 69.6168 379.113C69.306 378.846 68.9829 378.562 68.6592 378.277C68.1651 377.842 67.6698 377.407 67.2149 377.031C66.4634 376.409 65.6637 375.811 64.9109 375.513C63.4208 374.922 60.9158 374.611 58.5531 374.503C56.1758 374.394 53.7235 374.483 52.2875 374.789C52.2866 374.789 52.2857 374.789 52.2848 374.789L29.1534 379.636L29.1333 379.64L29.1133 379.645C27.8833 379.956 26.0236 380.655 24.3715 381.765C22.7378 382.863 21.1407 384.478 20.7719 386.671C20.3495 389.183 21.0226 392.193 22.1752 394.862C23.3309 397.538 25.0459 400.05 26.8991 401.537C28.5065 402.826 30.8115 403.244 32.8666 403.316C34.9587 403.39 36.999 403.11 38.2598 402.825L38.2749 402.821L38.2899 402.817C44.8808 401.111 59.3395 397.26 64.1551 395.576C67.2174 394.506 68.8169 393.451 69.8535 392.242C70.3625 391.649 70.7062 391.051 71.0102 390.492C71.0614 390.398 71.1112 390.305 71.1604 390.214C71.4098 389.751 71.6428 389.318 71.9572 388.855C72.571 387.951 73.2252 387.232 73.8082 386.729C74.423 386.199 74.8614 385.992 75.0378 385.957L75.0485 385.954L217.716 355.684C217.955 355.651 218.14 355.61 218.31 355.571C218.65 355.495 218.929 355.432 219.463 355.477C220.207 355.541 221.383 355.862 223.292 357.014C227.456 359.526 232.064 360.146 233.918 360.141L233.993 360.141L234.067 360.129C238.626 359.427 245.666 358.299 251.97 357.197C255.122 356.647 258.095 356.102 260.484 355.619C262.84 355.143 264.713 354.711 265.603 354.381C267.47 353.689 268.772 352.341 269.634 350.999C270.49 349.665 270.954 348.274 271.122 347.356C271.478 345.524 271.74 340.893 270.04 336.48C269.058 333.93 266.655 332.688 264.341 332.12C262.017 331.55 259.541 331.591 257.944 331.801C253.878 332.153 243.814 333.509 235.841 336.159C230.849 337.819 227.698 339.482 225.472 341.22C223.236 342.965 221.987 344.747 220.776 346.501L220.737 346.557C219.772 347.954 218.806 349.351 217.952 350.417C217.523 350.951 217.146 351.372 216.831 351.659C216.528 351.935 216.389 351.987 216.391 351.992C216.391 351.992 216.393 351.992 216.397 351.992Z" stroke="white" stroke-width="2"/>
<path d="M216.397 351.992L216.37 351.995L216.333 352.003L73.6698 381.551C73.2468 381.536 72.6844 381.336 71.9693 380.9C71.2268 380.448 70.4354 379.815 69.6168 379.113C69.306 378.846 68.9829 378.562 68.6592 378.277C68.1651 377.842 67.6698 377.407 67.2149 377.031C66.4634 376.409 65.6637 375.811 64.9109 375.513C63.4208 374.922 60.9158 374.611 58.5531 374.503C56.1758 374.394 53.7235 374.483 52.2875 374.789C52.2866 374.789 52.2857 374.789 52.2848 374.789L29.1534 379.636L29.1333 379.64L29.1133 379.645C27.8833 379.956 26.0236 380.655 24.3715 381.765C22.7378 382.863 21.1407 384.478 20.7719 386.671C20.3495 389.183 21.0226 392.193 22.1752 394.862C23.3309 397.538 25.0459 400.05 26.8991 401.537C28.5065 402.826 30.8115 403.244 32.8666 403.316C34.9587 403.39 36.999 403.11 38.2598 402.825L38.2749 402.821L38.2899 402.817C44.8808 401.111 59.3395 397.26 64.1551 395.576C67.2174 394.506 68.8169 393.451 69.8535 392.242C70.3625 391.649 70.7062 391.051 71.0102 390.492C71.0614 390.398 71.1112 390.305 71.1604 390.214C71.4098 389.751 71.6428 389.318 71.9572 388.855C72.571 387.951 73.2252 387.232 73.8082 386.729C74.423 386.199 74.8614 385.992 75.0378 385.957L75.0485 385.954L217.716 355.684C217.955 355.651 218.14 355.61 218.31 355.571C218.65 355.495 218.929 355.432 219.463 355.477C220.207 355.541 221.383 355.862 223.292 357.014C227.456 359.526 232.064 360.146 233.918 360.141L233.993 360.141L234.067 360.129C238.626 359.427 245.666 358.299 251.97 357.197C255.122 356.647 258.095 356.102 260.484 355.619C262.84 355.143 264.713 354.711 265.603 354.381C267.47 353.689 268.772 352.341 269.634 350.999C270.49 349.665 270.954 348.274 271.122 347.356C271.478 345.524 271.74 340.893 270.04 336.48C269.058 333.93 266.655 332.688 264.341 332.12C262.017 331.55 259.541 331.591 257.944 331.801C253.878 332.153 243.814 333.509 235.841 336.159C230.849 337.819 227.698 339.482 225.472 341.22C223.236 342.965 221.987 344.747 220.776 346.501L220.737 346.557C219.772 347.954 218.806 349.351 217.952 350.417C217.523 350.951 217.146 351.372 216.831 351.659C216.528 351.935 216.389 351.987 216.391 351.992C216.391 351.992 216.393 351.992 216.397 351.992Z" stroke="#421134" stroke-opacity="0.98" stroke-width="2"/>
<ellipse cx="34.2519" cy="397.88" rx="2.86204" ry="0.954015" transform="rotate(7.8688 34.2519 397.88)" fill="#F5F5F5"/>
<ellipse cx="31.3493" cy="398.923" rx="1.70288" ry="0.43416" transform="rotate(7.8688 31.3493 398.923)" fill="#F5F5F5"/>
<path d="M229.348 348.685L263.697 341.444" stroke="black" stroke-linecap="round"/>
<path d="M179.546 360.693L213.895 353.453" stroke="white" stroke-linecap="round"/>
<path d="M31.4037 390.572L65.7519 383.331" stroke="black" stroke-linecap="round"/>
<path d="M37.3106 391.205L61.9798 385.94" stroke="#421134" stroke-linecap="round"/>
<path d="M36.71 387.546L61.3792 382.281" stroke="#421134" stroke-linecap="round"/>
<path d="M234.889 345.067L259.558 339.802" stroke="#421134" stroke-opacity="0.98" stroke-linecap="round"/>
<path d="M235.847 349.552L260.516 344.287" stroke="#421134" stroke-opacity="0.98" stroke-linecap="round"/>
<ellipse cx="261.761" cy="335.143" rx="2.86204" ry="0.954015" transform="rotate(-157.711 261.761 335.143)" fill="#F5F5F5"/>
<ellipse cx="264.832" cy="334.855" rx="1.70288" ry="0.43416" transform="rotate(-157.711 264.832 334.855)" fill="#F5F5F5"/>
<path d="M147 375.887C144.699 375.887 144 386.988 144 389.887C147.451 389.307 153.937 392.981 156.333 395.879L154.176 381.387C153.5 377.387 149.301 375.887 147 375.887Z" fill="#A98391"/>
<path d="M138.5 376.387C140.633 376.387 141.5 386.609 141.5 389.387C135.5 390.776 131.722 394.109 129.5 396.887L132.221 379.199C132.398 378.048 133.085 377.029 134.223 376.786C135.506 376.513 137.131 376.387 138.5 376.387Z" fill="#A98391"/>
<path d="M129.667 406.19C129.667 405.13 130.174 402.435 130.428 401.22C130.569 402.048 130.835 403.97 130.767 405.031C130.682 406.356 129.667 407.516 129.667 406.19Z" fill="#FFBDBD"/>
<path d="M156.29 393.389C155.97 392.881 153.223 392.472 151.889 392.331L154.289 394.553C155.09 394.377 156.61 393.897 156.29 393.389Z" fill="#FFBDBD"/>
<path d="M135.237 387.829V390.109C136.756 390.109 138.823 388.857 139.667 388.232L137.009 386.89C135.389 386.461 135.153 387.338 135.237 387.829Z" fill="#FFBDBD"/>
<path d="M130.058 396.507C129.349 399.324 129.763 401.653 130.058 402.465C130.058 403.007 130.531 405.147 132.424 409.372C134.789 414.654 142.771 416.279 146.91 415.467C151.049 414.654 154.892 412.081 156.075 404.091C157.257 396.1 154.153 394.611 151.492 391.902C148.831 389.193 146.023 389.058 143.362 389.058C140.701 389.058 139.962 388.923 139.223 389.058C138.484 389.193 138.188 390.006 134.197 390.819C130.206 391.631 130.945 392.985 130.058 396.507Z" fill="#CC6FB1"/>
<path d="M165.207 391.838H159.097C161.69 399.764 158.954 406.848 157 409.887C166.526 409.887 174 399.631 174 396.701C174 394.356 172.779 378.381 171.655 370.676C172.095 364.001 169.897 361.071 169.31 360.908C168.724 360.745 164.474 361.559 162.422 361.559C160.781 361.559 160.175 363.513 160.078 364.49C160.517 364.381 161.455 364.685 161.69 366.769C161.983 369.373 160.078 369.211 160.078 370.025C160.078 370.676 163.839 371.468 164.621 372.119C164.816 375.646 164.621 378.143 164.621 383.515C164.621 384.454 165.011 389.668 165.207 391.838Z" fill="#FFBEBE"/>
<path d="M121.333 396.603H125.5C123.944 402.289 127.815 409.73 129.667 412.331C120.639 412.331 113 403.274 113 400.765C113 398.759 114.157 385.084 115.222 378.488C114.806 372.775 116.889 370.267 117.444 370.127C118 369.988 122.028 370.685 123.972 370.685C125.528 370.685 126.102 372.357 126.194 373.193C125.778 373.1 124.889 373.36 124.667 375.144C124.389 377.373 126.194 377.234 126.194 377.931C126.194 378.488 122.63 379.166 121.889 379.724C121.704 382.743 121.889 384.88 121.889 389.478C121.889 390.282 121.519 394.745 121.333 396.603Z" fill="#FFBEBE"/>
<g filter="url(#filter1_d_65_91)">
<circle cx="143" cy="400.109" r="17.7778" fill="#F4FCFF" fill-opacity="0.55" shape-rendering="crispEdges"/>
</g>
<path d="M212.746 158C212.929 159.66 211.573 163.022 208.672 164.203" stroke="#81B3C3" stroke-linecap="round"/>
<path d="M53.5 241C55.5 236.6 55 235 54.5 234C53.5 232.5 51.5 232 49.5 232.5C47.9 232.9 45.1667 235.667 44 237C42.8333 237.333 40.3 238.7 39.5 241.5C38.7 244.3 40.5 244.667 41.5 244.5V247C41.5 249.8 43.1667 252.5 44 253.5C45 255.5 49.5 259 50 259.5C50.5 260 49 263.5 48.5 265C48 266.5 48.5 268.5 51 268.5C53 268.5 53.8333 266.833 54 266H55C56.6 266 56.6666 263.667 56.5 262.5C56.8333 260.833 56.9 257 54.5 255C52.1 253 51.5 250.5 51.5 249.5C52.3 249.5 53.1666 248.833 53.5 248.5C55.5 245.7 54.3333 242.333 53.5 241Z" fill="white"/>
<path d="M50.5223 266.585C50.6378 266.65 50.8277 266.709 51.0797 266.621C51.9585 266.318 53.0438 264.371 53.5314 263.38C53.5425 263.47 53.5439 263.581 53.5312 263.717C53.5201 263.819 53.4892 264.133 53.7269 264.266C53.7805 264.297 53.9717 264.38 54.1935 264.19C54.4711 263.951 54.8406 263.193 54.5919 262.531C54.5532 262.427 54.5751 262.279 54.606 262.071C54.7443 261.133 54.9999 259.387 51.2887 254.586C51.1712 254.403 48.9903 250.88 50.4307 245.816C50.6025 246.572 50.8915 247.445 51.3385 247.697C51.459 247.765 51.5867 247.793 51.7165 247.777C51.9492 247.752 52.7231 247.498 52.9277 245.302C52.9503 245.14 53.0675 243.863 51.6996 241.194C51.6737 241.021 51.939 240.37 52.1514 239.848C52.8673 238.083 53.9485 235.42 52.1533 234.21C52.1166 234.185 52.0774 234.161 52.0389 234.139C51.5517 233.865 50.9498 233.841 50.2496 234.067C48.2871 234.697 46.0473 237.096 45.3384 238.492C44.6514 238.744 41.2735 240.094 41.7443 242.097C41.7508 242.121 41.7584 242.143 41.7702 242.165C41.79 242.2 41.8629 242.325 42.0304 242.419C42.4857 242.676 43.1076 242.468 43.8847 241.801C43.3715 243.66 42.7184 247.431 44.5571 250.775C47.0315 255.274 50.418 257.483 50.5606 257.574C50.5656 257.577 50.5706 257.58 50.5757 257.583C50.5857 257.589 50.5958 257.594 50.6067 257.598C50.6101 257.6 50.6328 257.611 50.6663 257.63C51.0229 257.83 52.1425 258.677 51.5913 261.132C51.297 262.441 50.8958 263.408 50.5736 264.184C50.1275 265.258 49.8335 265.968 50.3995 266.494C50.4381 266.531 50.4821 266.563 50.5273 266.588L50.5223 266.585Z" fill="url(#paint9_linear_65_91)" fill-opacity="0.3"/>
<path d="M45.5137 257.729C43.9069 257.273 41.3038 254.749 41.3038 251.617" stroke="white" stroke-linecap="round"/>
<path d="M45.0137 261.512C42.3222 260.614 37.9149 255.809 37.8324 249.93" stroke="white" stroke-linecap="round"/>
<path d="M203.073 133.564C201.073 129.164 201.573 127.564 202.073 126.564C203.073 125.064 205.073 124.564 207.073 125.064C208.673 125.464 211.406 128.231 212.573 129.564C213.74 129.898 216.273 131.264 217.073 134.064C217.873 136.864 216.073 137.231 215.073 137.064V139.564C215.073 142.364 213.406 145.064 212.573 146.064C211.573 148.064 207.073 151.564 206.573 152.064C206.073 152.564 207.573 156.064 208.073 157.564C208.573 159.064 208.073 161.064 205.573 161.064C203.573 161.064 202.74 159.398 202.573 158.564H201.573C199.973 158.564 199.906 156.231 200.073 155.064C199.74 153.398 199.673 149.564 202.073 147.564C204.473 145.564 205.073 143.064 205.073 142.064C204.273 142.064 203.406 141.398 203.073 141.064C201.073 138.264 202.24 134.898 203.073 133.564Z" fill="white"/>
<path d="M206.051 159.15C205.935 159.215 205.745 159.273 205.493 159.186C204.615 158.882 203.529 156.936 203.042 155.945C203.031 156.035 203.029 156.146 203.042 156.282C203.053 156.384 203.084 156.697 202.846 156.831C202.793 156.861 202.601 156.944 202.379 156.754C202.102 156.516 201.732 155.758 201.981 155.095C202.02 154.992 201.998 154.843 201.967 154.636C201.829 153.697 201.573 151.951 205.284 147.151C205.402 146.968 207.583 143.444 206.142 138.381C205.971 139.137 205.681 140.01 205.235 140.261C205.114 140.329 204.986 140.357 204.856 140.342C204.624 140.316 203.85 140.062 203.645 137.866C203.623 137.705 203.505 136.428 204.873 133.759C204.899 133.585 204.634 132.934 204.422 132.412C203.706 130.648 202.625 127.984 204.42 126.775C204.456 126.75 204.496 126.725 204.534 126.704C205.021 126.429 205.623 126.406 206.323 126.631C208.286 127.261 210.526 129.66 211.235 131.056C211.922 131.309 215.299 132.659 214.829 134.662C214.822 134.685 214.815 134.707 214.803 134.729C214.783 134.765 214.71 134.889 214.543 134.984C214.087 135.24 213.465 135.033 212.688 134.365C213.202 136.224 213.855 139.995 212.016 143.34C209.542 147.838 206.155 150.048 206.012 150.139C206.007 150.142 206.002 150.145 205.997 150.147C205.987 150.153 205.977 150.159 205.966 150.163C205.963 150.165 205.94 150.175 205.907 150.194C205.55 150.395 204.43 151.242 204.982 153.696C205.276 155.006 205.677 155.973 205.999 156.749C206.446 157.823 206.739 158.532 206.174 159.058C206.135 159.096 206.091 159.127 206.046 159.153L206.051 159.15Z" fill="url(#paint10_linear_65_91)" fill-opacity="0.3"/>
<path d="M211.059 150.293C212.666 149.837 215.269 147.314 215.269 144.182" stroke="white" stroke-linecap="round"/>
<path d="M211.559 154.076C214.251 153.178 218.658 148.373 218.741 142.494" stroke="white" stroke-linecap="round"/>
<path d="M199.073 416.564C197.073 412.164 197.573 410.564 198.073 409.564C199.073 408.064 201.073 407.564 203.073 408.064C204.673 408.464 207.406 411.231 208.573 412.564C209.74 412.898 212.273 414.264 213.073 417.064C213.873 419.864 212.073 420.231 211.073 420.064V422.564C211.073 425.364 209.406 428.064 208.573 429.064C207.573 431.064 203.073 434.564 202.573 435.064C202.073 435.564 203.573 439.064 204.073 440.564C204.573 442.064 204.073 444.064 201.573 444.064C199.573 444.064 198.74 442.398 198.573 441.564H197.573C195.973 441.564 195.906 439.231 196.073 438.064C195.74 436.398 195.673 432.564 198.073 430.564C200.473 428.564 201.073 426.064 201.073 425.064C200.273 425.064 199.406 424.398 199.073 424.064C197.073 421.264 198.24 417.898 199.073 416.564Z" fill="white"/>
<path d="M202.051 442.15C201.935 442.215 201.745 442.273 201.493 442.186C200.615 441.882 199.529 439.936 199.042 438.945C199.031 439.035 199.029 439.146 199.042 439.282C199.053 439.384 199.084 439.697 198.846 439.831C198.793 439.861 198.601 439.944 198.379 439.754C198.102 439.516 197.732 438.758 197.981 438.095C198.02 437.992 197.998 437.843 197.967 437.636C197.829 436.697 197.573 434.951 201.284 430.151C201.402 429.968 203.583 426.444 202.142 421.381C201.971 422.137 201.681 423.01 201.235 423.261C201.114 423.329 200.986 423.357 200.856 423.342C200.624 423.316 199.85 423.062 199.645 420.866C199.623 420.705 199.505 419.428 200.873 416.759C200.899 416.585 200.634 415.934 200.422 415.412C199.706 413.648 198.625 410.984 200.42 409.775C200.456 409.75 200.496 409.725 200.534 409.704C201.021 409.429 201.623 409.406 202.323 409.631C204.286 410.261 206.526 412.66 207.235 414.056C207.922 414.309 211.299 415.659 210.829 417.662C210.822 417.685 210.815 417.707 210.803 417.729C210.783 417.765 210.71 417.889 210.543 417.984C210.087 418.24 209.465 418.033 208.688 417.365C209.202 419.224 209.855 422.995 208.016 426.34C205.542 430.838 202.155 433.048 202.012 433.139C202.007 433.142 202.002 433.145 201.997 433.147C201.987 433.153 201.977 433.159 201.966 433.163C201.963 433.165 201.94 433.175 201.907 433.194C201.55 433.395 200.43 434.242 200.982 436.696C201.276 438.006 201.677 438.973 201.999 439.749C202.446 440.823 202.739 441.532 202.174 442.058C202.135 442.096 202.091 442.127 202.046 442.153L202.051 442.15Z" fill="url(#paint11_linear_65_91)" fill-opacity="0.3"/>
<path d="M207.059 433.293C208.666 432.837 211.269 430.314 211.269 427.182" stroke="white" stroke-linecap="round"/>
<path d="M207.559 437.076C210.251 436.178 214.658 431.373 214.741 425.494" stroke="white" stroke-linecap="round"/>
<path d="M202.255 139.4C200.598 139.488 197.247 140.383 197.102 143.26" stroke="#81B3C3" stroke-width="0.5" stroke-linecap="round"/>
<defs>
<filter id="filter0_d_65_91" x="20.1706" y="334.733" width="253.094" height="75.6184" filterUnits="userSpaceOnUse" color-interpolation-filters="sRGB">
<feFlood flood-opacity="0" result="BackgroundImageFix"/>
<feColorMatrix in="SourceAlpha" type="matrix" values="0 0 0 0 0 0 0 0 0 0 0 0 0 0 0 0 0 0 127 0" result="hardAlpha"/>
<feOffset dy="4"/>
<feGaussianBlur stdDeviation="2"/>
<feComposite in2="hardAlpha" operator="out"/>
<feColorMatrix type="matrix" values="0 0 0 0 0 0 0 0 0 0 0 0 0 0 0 0 0 0 0.25 0"/>
<feBlend mode="normal" in2="BackgroundImageFix" result="effect1_dropShadow_65_91"/>
<feBlend mode="normal" in="SourceGraphic" in2="effect1_dropShadow_65_91" result="shape"/>
</filter>
<filter id="filter1_d_65_91" x="118.022" y="375.131" width="49.9555" height="49.9557" filterUnits="userSpaceOnUse" color-interpolation-filters="sRGB">
<feFlood flood-opacity="0" result="BackgroundImageFix"/>
<feColorMatrix in="SourceAlpha" type="matrix" values="0 0 0 0 0 0 0 0 0 0 0 0 0 0 0 0 0 0 127 0" result="hardAlpha"/>
<feMorphology radius="1" operator="erode" in="SourceAlpha" result="effect1_dropShadow_65_91"/>
<feOffset/>
<feGaussianBlur stdDeviation="4.1"/>
<feComposite in2="hardAlpha" operator="out"/>
<feColorMatrix type="matrix" values="0 0 0 0 0.822233 0 0 0 0 0.957336 0 0 0 0 1 0 0 0 1 0"/>
<feBlend mode="normal" in2="BackgroundImageFix" result="effect1_dropShadow_65_91"/>
<feBlend mode="normal" in="SourceGraphic" in2="effect1_dropShadow_65_91" result="shape"/>
</filter>
<linearGradient id="paint0_linear_65_91" x1="75.4427" y1="329.662" x2="98.9978" y2="340.758" gradientUnits="userSpaceOnUse">
<stop stop-color="#81B3C3"/>
<stop offset="1" stop-color="#661868"/>
</linearGradient>
<linearGradient id="paint1_linear_65_91" x1="146.039" y1="27.1363" x2="136.759" y2="188.686" gradientUnits="userSpaceOnUse">
<stop stop-color="#EEE5D4"/>
<stop offset="1" stop-color="#C4B69B"/>
</linearGradient>
<linearGradient id="paint2_linear_65_91" x1="142.618" y1="82.3303" x2="136.71" y2="185.177" gradientUnits="userSpaceOnUse">
<stop stop-color="#291352"/>
<stop offset="1" stop-color="#5C1558"/>
</linearGradient>
<linearGradient id="paint3_linear_65_91" x1="139.069" y1="331.554" x2="129.184" y2="503.634" gradientUnits="userSpaceOnUse">
<stop stop-color="#EEE5D4"/>
<stop offset="1" stop-color="#C4B69B"/>
</linearGradient>
<linearGradient id="paint4_linear_65_91" x1="140.928" y1="190.131" x2="136.858" y2="260.972" gradientUnits="userSpaceOnUse">
<stop stop-color="#291352"/>
<stop offset="1" stop-color="#5C1558"/>
</linearGradient>
<linearGradient id="paint5_linear_65_91" x1="139.378" y1="264.962" x2="135.306" y2="335.845" gradientUnits="userSpaceOnUse">
<stop stop-color="#291352"/>
<stop offset="1" stop-color="#5C1558"/>
</linearGradient>
<linearGradient id="paint6_linear_65_91" x1="139.195" y1="338.072" x2="132.686" y2="451.385" gradientUnits="userSpaceOnUse">
<stop stop-color="#291352"/>
<stop offset="1" stop-color="#5C1558"/>
</linearGradient>
<linearGradient id="paint7_linear_65_91" x1="139.798" y1="422.615" x2="135.313" y2="500.691" gradientUnits="userSpaceOnUse">
<stop stop-color="#CE9CCC"/>
<stop offset="0.305" stop-color="#684F67"/>
</linearGradient>
<linearGradient id="paint8_linear_65_91" x1="275.037" y1="340.362" x2="-108.139" y2="409.598" gradientUnits="userSpaceOnUse">
<stop stop-color="#CE9CCC"/>
<stop offset="1" stop-color="#221851"/>
</linearGradient>
<linearGradient id="paint9_linear_65_91" x1="49.1225" y1="235.136" x2="44.7062" y2="260.797" gradientUnits="userSpaceOnUse">
<stop stop-color="#81B3C3"/>
<stop offset="1" stop-color="#661868"/>
</linearGradient>
<linearGradient id="paint10_linear_65_91" x1="207.45" y1="127.7" x2="211.867" y2="153.361" gradientUnits="userSpaceOnUse">
<stop stop-color="#81B3C3"/>
<stop offset="1" stop-color="#661868"/>
</linearGradient>
<linearGradient id="paint11_linear_65_91" x1="203.45" y1="410.7" x2="207.867" y2="436.361" gradientUnits="userSpaceOnUse">
<stop stop-color="#81B3C3"/>
<stop offset="1" stop-color="#661868"/>
</linearGradient>
</defs>
</svg>
