<svg width="181" height="178" viewBox="0 0 181 178" fill="none" xmlns="http://www.w3.org/2000/svg">
<path d="M49.7186 132.434C23.9487 120.415 29.6173 88.2024 35.6728 73.5986L79.0642 83.253L38.696 63.6617C42.8099 42.0565 63.6939 32.162 73.6217 29.9154C157.135 33.8257 162.023 87.1238 154.028 113.284C127.67 154.839 81.9309 147.459 49.7186 132.434Z" fill="#425818" stroke="#2C3D0C" stroke-linecap="round"/>
<path d="M154.89 112.784C129.493 156.163 82.8811 148.866 49.166 133.14C38.8484 128.328 34.8759 120.388 29.8357 112.296C28.9214 112.498 23.1299 110.937 22.439 110.597L27.0796 99.9871C26.6877 96.9697 27.0291 98.1057 27.0796 95.1121C25.0149 93.8781 19.3831 90.2658 19.101 88.3613C20.0265 86.4534 23.6399 81.9586 27.6239 81.7792C28.0034 79.7015 27.6301 81.3658 28.1302 79.5132C27.0994 78.4117 23.475 71.2115 23.4045 67.8256L31.2007 69.5592L74.6757 83.1049L36.18 66.1185C40.4858 43.5053 62.3825 30.2217 72.7734 27.8704C160.183 31.9632 163.258 85.4031 154.89 112.784Z" fill="white"/>
<path d="M52.3058 128.661C28.1198 117.372 33.3532 88.0813 39.0265 74.3869L77.0659 83.4019L41.7666 64.8154C45.614 44.5527 65.3604 34.6169 74.674 32.5155C153.034 36.2316 157.652 86.2263 150.165 110.759C125.458 149.722 82.5383 142.773 52.3058 128.661Z" fill="#3A4D15"/>
<path d="M77.3491 83.037L76.7911 135.817" stroke="#425818" stroke-width="3" stroke-linecap="round"/>
<path d="M77.2818 83.5068L99.5345 131.37" stroke="#425818" stroke-width="3" stroke-linecap="round"/>
<path d="M76.9943 83.5655L120.931 112.816" stroke="#425818" stroke-width="3" stroke-linecap="round"/>
<path d="M76.8167 83.0723L129.33 88.4028" stroke="#425818" stroke-width="3" stroke-linecap="round"/>
<path d="M76.7907 83.1886L123.889 59.3589" stroke="#425818" stroke-width="3" stroke-linecap="round"/>
<path d="M61.3095 103.522C62.3702 109.851 62.2223 123.78 53.1449 128.86C51.1376 125.243 48.8846 116.173 54.048 106.457C49.7387 113.059 42.3969 122.291 36.4009 123.226C36.9591 118.208 40.1171 106.394 48.2875 98.9081C43.4333 103.262 32.3976 111.01 25.0187 108.897C26.4579 104.593 31.0188 96.3218 38.5858 93.9468C33.5937 94.5587 26.0908 93.9043 21.3562 88.1606C25.299 85.7286 34.4381 82.4024 42.2381 86.3581C35.4045 81.8818 25.5767 74.3773 26.3525 70.4633C31.7403 70.8146 43.7273 72.915 48.5727 78.506C45.7415 72.4874 40.879 59.4179 44.0788 55.2893C48.3341 58.0208 56.4706 64.5731 57.4427 70.3168C57.3706 66.4972 58.4418 58.7918 63.3174 50.0069C65.5537 55.4115 69.1689 67.2084 65.7398 71.1593C69.9951 66.6555 79.5753 57.9262 83.8531 59.0388C83.7455 64.3095 81.6236 76.1268 73.997 81.2302C80.0395 79.9473 93.2011 78.124 97.5075 81.0944C96.744 84.4356 93.0206 90.5641 84.1202 90.5146C90.1064 91.0485 98.8834 92.7426 99.7292 96.5841C96.1908 98.5129 87.6585 101.781 80.7117 100.163C84.4182 101.249 90.5974 103.93 91.8588 107.924C89.6184 108.559 84.9388 109.24 81.2986 107.923C85.4592 110.397 90.6672 114.782 89.142 119.127C85.4625 119.335 76.713 117.755 71.1508 109.772C71.9297 112.518 72.2173 119.41 67.1366 125.018C65.6744 119.602 62.462 107.719 61.3095 103.522Z" fill="url(#paint0_radial_81_84)"/>
<path d="M59.5992 101.648C59.8319 106.863 58.3403 118.086 50.5116 121.257C49.2476 118.133 48.3223 110.585 53.4478 103.274C49.3186 108.16 42.4819 114.859 37.5494 115C38.4943 111.009 42.2077 101.8 49.5411 96.5949C45.1934 99.6113 35.521 104.735 29.7722 102.276C31.3581 98.9504 35.855 92.7435 42.1978 91.6006C38.1074 91.5841 32.1148 90.2894 28.8584 85.1714C32.281 83.6121 39.9867 81.8624 45.8938 85.8511C40.8181 81.5412 33.6235 74.482 34.6354 71.4034C38.9504 72.2375 48.4205 75.1571 51.7813 80.1632C50.0886 75.0179 47.4508 63.9763 50.4407 60.9722C53.6069 63.6109 59.5299 69.7289 59.7488 74.4624C60.0669 71.3733 61.6908 65.2658 66.4923 58.6763C67.7652 63.2654 69.5216 73.1528 66.364 75.99C70.2431 72.7912 78.8371 66.7272 82.1809 68.062C81.5748 72.3035 78.6976 81.6212 72.0378 84.9593C77.0423 84.5417 87.8473 84.4157 91.0311 87.2523C90.0856 89.87 86.4759 94.4342 79.2956 93.4846C84.0756 94.5271 90.9943 96.7909 91.2987 99.9768C88.2521 101.171 81.0421 102.936 75.5934 100.921C78.4787 102.176 83.2029 104.97 83.8278 108.321C81.9566 108.605 78.1116 108.676 75.3027 107.242C78.4178 109.663 82.1902 113.733 80.5308 117.083C77.5399 116.874 70.6321 114.706 66.9282 107.697C67.2866 109.992 66.8396 115.582 62.1856 119.587C61.5388 115.068 60.116 105.153 59.5992 101.648Z" fill="url(#paint1_radial_81_84)"/>
<path d="M58.4966 98.9772C58.6931 103.379 57.4341 112.851 50.8266 115.527C49.7597 112.891 48.9787 106.52 53.3048 100.35C49.8196 104.473 44.0494 110.127 39.8862 110.247C40.6838 106.878 43.8179 99.1051 50.0074 94.7121C46.3379 97.258 38.1743 101.582 33.3221 99.5074C34.6607 96.7001 38.4561 91.4615 43.8095 90.4968C40.3572 90.4829 35.2993 89.3901 32.5509 85.0705C35.4396 83.7545 41.9433 82.2776 46.9291 85.6442C42.6451 82.0065 36.5727 76.0485 37.4268 73.4501C41.0687 74.1541 49.0616 76.6182 51.8982 80.8435C50.4696 76.5008 48.2432 67.1815 50.7667 64.646C53.439 66.8731 58.4381 72.0368 58.6229 76.032C58.8914 73.4247 60.262 68.2699 64.3145 62.7082C65.3889 66.5815 66.8713 74.9266 64.2062 77.3213C67.4802 74.6214 74.7337 69.5033 77.5559 70.6299C77.0444 74.2098 74.6159 82.074 68.995 84.8915C73.2189 84.539 82.3384 84.4326 85.0257 86.8268C84.2276 89.0362 81.181 92.8884 75.1206 92.087C79.1551 92.9669 84.9946 94.8776 85.2515 97.5665C82.6801 98.5747 76.5948 100.064 71.996 98.363C74.4312 99.4222 78.4185 101.781 78.9459 104.609C77.3666 104.849 74.1214 104.909 71.7506 103.698C74.3798 105.742 77.5638 109.177 76.1632 112.004C73.6389 111.828 67.8086 109.998 64.6824 104.082C64.9849 106.019 64.6077 110.738 60.6795 114.118C60.1337 110.304 58.9328 101.935 58.4966 98.9772Z" fill="url(#paint2_radial_81_84)"/>
<path d="M63.2088 98.1102C64.1549 100.679 61.4478 103.935 59.976 105.242C60.429 102.289 57.3598 100.92 55.7685 100.604C53.6793 102.847 50.3533 103.04 48.7583 102.842C48.6887 102.841 48.6193 102.832 48.5504 102.812C48.6159 102.823 48.6853 102.833 48.7583 102.842C50.207 102.846 51.7874 98.7695 52.4212 96.6334L48.4143 97.6584C48.3341 95.3933 51.2385 93.4222 52.7008 92.7198C46.5422 93.0867 44.4482 91.525 44.1711 90.6983C45.9544 91.7133 50.2566 89.7547 52.1848 88.6485C50.1491 88.9065 48.4503 87.7429 47.8554 87.1288L51.1311 86.4551C46.085 82.5442 46.0516 80.3767 46.6657 79.7818C47.7147 78.0116 50.5223 80.9649 52.2613 83.266C51.7748 82.0132 52.1961 80.2138 52.5505 79.2945L56.1487 81.1653C53.8034 78.9805 55.6925 74.8457 56.9301 73.0513C58.8128 76.3462 62.4564 82.3825 61.969 80.1691C61.4816 77.9557 63.2473 77.3354 64.1911 77.302C64.1313 79.5503 64.1193 83.6713 64.5494 82.169C64.9795 80.6666 68.2887 79.7128 69.8895 79.4238C71.5906 82.1209 66.585 86.1997 63.3802 88.2288C65.3227 87.0867 68.3669 85.7701 68.5991 87.6022C68.7662 88.9209 68.0161 89.8495 67.1961 90.4212C69.2368 89.6245 72.3184 89.3011 74.3333 92.0464C76.8334 95.4526 69.7363 95.2145 65.8753 94.6697C67.9396 96.2696 70.2858 100.23 71.2008 102.01C68.1426 99.6394 62.2627 95.5413 63.2088 98.1102Z" fill="url(#paint3_radial_81_84)"/>
<defs>
<radialGradient id="paint0_radial_81_84" cx="0" cy="0" r="1" gradientUnits="userSpaceOnUse" gradientTransform="translate(60.4137 91.3545) rotate(-52.398) scale(59.4893 59.2189)">
<stop stop-color="#D9D9D9"/>
<stop offset="0.875" stop-color="#7854C5"/>
</radialGradient>
<radialGradient id="paint1_radial_81_84" cx="0" cy="0" r="1" gradientUnits="userSpaceOnUse" gradientTransform="translate(60.0747 91.7397) rotate(-45.1352) scale(32.3767)">
<stop stop-color="#D9D9D9"/>
<stop offset="0.575" stop-color="#E5D8FF"/>
</radialGradient>
<radialGradient id="paint2_radial_81_84" cx="0" cy="0" r="1" gradientUnits="userSpaceOnUse" gradientTransform="translate(58.898 90.6143) rotate(-44.1973) scale(44.3057)">
<stop stop-color="#D9D9D9"/>
<stop offset="1" stop-color="#580AFF"/>
</radialGradient>
<radialGradient id="paint3_radial_81_84" cx="0" cy="0" r="1" gradientUnits="userSpaceOnUse" gradientTransform="translate(58.9287 90.8922) rotate(-52.2234) scale(15.7791 16.5103)">
<stop stop-color="#F48D1B"/>
<stop offset="1" stop-color="#F3EE7E"/>
</radialGradient>
</defs>
</svg>
