<svg width="322" height="205" viewBox="0 0 322 205" fill="none" xmlns="http://www.w3.org/2000/svg">
<path d="M180.984 196.285C173.725 195.54 174.5 190.406 175.795 187.932L187.768 187.578L176.379 186.295C176.983 182.839 182.403 180.458 185.037 179.7C207.736 176.788 210.316 184.683 208.768 188.994C202.613 196.417 190.058 197.216 180.984 196.285Z" fill="#425818" stroke="#2C3D0C" stroke-linecap="round"/>
<path d="M181.595 195.603C174.782 194.902 175.508 190.231 176.721 187.912L187.231 187.684L177.237 186.342C177.801 183.101 182.912 180.762 185.384 180.051C206.683 177.326 209.111 184.73 207.663 188.773C201.893 195.732 190.112 196.478 181.595 195.603Z" fill="#3A4D15"/>
<path d="M187.299 187.617L188.392 195.662" stroke="#425818" stroke-width="3" stroke-linecap="round"/>
<path d="M187.292 187.691L194.443 194.031" stroke="#425818" stroke-width="3" stroke-linecap="round"/>
<path d="M187.215 187.712L199.798 190.313" stroke="#425818" stroke-width="3" stroke-linecap="round"/>
<path d="M187.155 187.645L201.496 186.25" stroke="#425818" stroke-width="3" stroke-linecap="round"/>
<path d="M187.151 187.663L199.338 182.064" stroke="#425818" stroke-width="3" stroke-linecap="round"/>
<path d="M315.082 131.896C316.725 113.16 307.184 100.806 302.207 96.9706C302.846 97.5376 304.645 101.317 306.727 111.9C308.809 122.482 303.76 131.832 300.975 135.184C300.244 136.918 296.236 142.333 286.046 150.113C273.308 159.837 271.116 174.218 270.158 175.999C269.391 177.423 265.821 178.692 264.131 179.149C269.747 181.523 281.745 183.86 284.813 174.218C288.648 162.165 313.027 155.317 315.082 131.896Z" fill="url(#paint0_linear_52_68)"/>
<path d="M307.001 117.926C307.001 103.9 301.203 94.6421 298.235 91.7659C299.011 93.729 300.482 99.8467 300.153 108.612C299.824 117.378 294.446 127.696 291.798 131.759C285.772 140.525 278.102 147.236 271.527 151.482C264.953 155.728 263.036 179.286 263.583 179.286C264.022 179.286 267.418 177.551 269.062 176.683C269.884 176.638 271.993 174.739 273.856 167.507C275.718 160.275 282.758 152.989 286.046 150.249C292.985 145.319 307.001 137.001 307.001 117.926Z" fill="url(#paint1_linear_52_68)"/>
<path d="M287.963 121.35C294.537 109.845 289.059 89.8941 286.319 82.1785L294.126 83.822C295.176 84.2786 297.742 87.657 299.605 97.5184C301.933 109.845 298.235 118.337 294.126 127.24C290.017 136.142 280.978 145.045 272.623 150.66C265.939 155.153 263.72 171.433 263.446 179.012C260.935 179.834 255.804 178.108 255.366 164.631C254.927 151.153 264.953 144.041 270.021 142.169C273.262 140.023 281.389 132.855 287.963 121.35Z" fill="url(#paint2_linear_52_68)"/>
<path d="M107.633 129.084C123.74 129.201 128.771 129.863 129.41 130.543C119.823 132.586 58.5999 131.565 55.7237 130.689C53.2261 129.929 65.1286 129.133 71.3377 129.084C76.7249 129.036 91.5261 128.968 107.633 129.084Z" fill="#E7B064"/>
<path d="M129.547 130.689C108.4 132.907 71.4289 131.613 55.5868 130.689V178.545C54.4454 180.636 59.0109 185.227 86.4036 186.861C113.796 188.496 126.58 182.776 129.547 179.712V130.689Z" fill="url(#paint3_linear_52_68)"/>
<path d="M259.115 140.031C275.222 140.128 280.253 140.681 280.892 141.249C267.405 143.876 210.082 142.102 207.206 141.371C204.708 140.736 216.611 140.071 222.82 140.031C228.207 139.99 243.008 139.933 259.115 140.031Z" fill="#E7B064"/>
<path d="M281.029 141.371C259.882 143.223 222.911 142.143 207.069 141.371V181.334C205.927 183.08 210.493 186.914 237.886 188.279C265.278 189.643 278.062 184.867 281.029 182.309V141.371Z" fill="url(#paint4_linear_52_68)"/>
<path d="M183.237 117.85C199.344 117.959 204.375 118.58 205.014 119.219C193.855 122.583 135.097 121.213 131.328 119.356C128.997 118.208 140.733 117.895 146.942 117.85C152.329 117.804 167.13 117.74 183.237 117.85Z" fill="#E7B064"/>
<path d="M205.223 119.432C184.042 122.036 147.013 120.517 131.146 119.432V175.621C130.003 178.076 134.575 183.466 162.011 185.385C189.447 187.304 202.251 180.588 205.223 176.991V119.432Z" fill="url(#paint5_linear_52_68)"/>
<path d="M26.2111 178.19C24.3484 178.847 23.8827 181.112 23.8827 182.162C24.7045 183.395 26.2111 183.532 28.9504 183.258C31.1418 183.039 30.5939 180.792 30.0461 179.697C29.5439 178.921 28.0738 177.533 26.2111 178.19Z" fill="url(#paint6_linear_52_68)"/>
<path d="M137.974 159.406C137.864 161.597 134.599 166.496 133.594 167.911C135.348 172.513 135.554 179.448 134.823 183.101C136.878 183.101 137.289 184.744 139.617 185.566C141.946 186.388 141.018 187.62 141.977 183.101C142.744 179.485 145.37 174.107 144.274 171.87C146.602 165.158 138.111 156.667 137.974 159.406Z" fill="url(#paint7_radial_52_68)"/>
<path d="M213.852 158.858C213.742 161.049 211.706 164.428 210.701 165.843C212.455 170.445 211.432 178.9 210.701 182.553C212.756 182.553 213.167 184.196 215.495 185.018C217.824 185.84 221.522 187.073 222.48 182.553C223.247 178.937 221.248 173.559 220.152 171.322C222.48 164.61 213.989 156.119 213.852 158.858Z" fill="url(#paint8_radial_52_68)"/>
<path d="M0.187916 124.5C-1.45565 105.763 8.08617 93.4093 13.0625 89.5743C12.4234 90.1413 10.6246 93.921 8.54272 104.503C6.46087 115.086 11.5103 124.435 14.2952 127.787C15.0257 129.522 19.0342 134.937 29.2243 142.716C41.9619 152.441 44.1533 166.822 45.1121 168.603C45.8791 170.027 49.4493 171.296 51.1385 171.753C45.523 174.127 33.5249 176.464 30.4569 166.822C26.622 154.769 2.24237 147.921 0.187916 124.5Z" fill="url(#paint9_linear_52_68)"/>
<path d="M8.26884 110.53C8.15927 96.5049 14.067 87.2461 17.0345 84.3699C16.2584 86.333 14.7883 92.4507 15.117 101.216C15.4457 109.982 20.8238 120.3 23.4718 124.363C29.4982 133.129 37.1682 139.84 43.7425 144.086C50.3167 148.332 52.2342 171.89 51.6864 171.89C51.2481 171.89 47.8514 170.155 46.2078 169.287C45.386 169.242 43.2768 167.343 41.4141 160.111C39.5514 152.879 32.5114 145.593 29.2243 142.853C22.2848 137.923 8.37841 124.555 8.26884 110.53Z" fill="url(#paint10_linear_52_68)"/>
<path d="M27.3067 113.954C20.7325 102.449 26.2111 82.498 28.9503 74.7823L21.1434 76.4259C20.0933 76.8825 17.5275 80.2609 15.6648 90.1223C13.3364 102.449 17.0344 110.941 21.1434 119.843C25.2523 128.746 34.2919 137.649 42.6467 143.264C49.3305 147.757 51.5494 164.037 51.8233 171.616C54.3343 172.438 59.4659 170.712 59.9041 157.235C60.3424 143.757 50.3167 136.644 45.249 134.773C42.0075 132.627 33.881 125.459 27.3067 113.954Z" fill="url(#paint11_linear_52_68)"/>
<path d="M134.642 166.863C137.053 171.684 137.761 177.868 136.985 182.068C136.163 180.836 131.232 186.134 128.767 185.586C126.794 185.148 128.858 181.568 128.767 183.258C129.406 182.116 127.303 178.65 128.767 173.807C130.547 167.918 125.206 164.811 126.027 162.209C126.849 159.606 124.643 157.314 126.027 155.771C128.767 152.718 128.904 142.014 130.547 141.192C132.191 140.37 130.547 150.156 130.547 153.717C130.547 157.278 131.629 160.837 134.642 166.863Z" fill="url(#paint12_linear_52_68)"/>
<path d="M213.182 164.129C214.927 169.229 212.704 178.622 211.374 182.681C210.724 181.349 205.13 185.942 202.76 185.07C201.217 184.502 201.017 180.399 200.825 179.785C200.775 179.863 200.726 179.934 200.679 179.996C200.738 179.687 200.781 179.644 200.825 179.785C201.618 178.547 202.765 175.316 201.941 170.63C200.845 164.402 202.004 164.005 203.166 161.536C204.328 159.067 204.022 157.229 204.025 155.156C204.028 153.084 205.915 149.33 207.654 148.735C209.393 148.14 209.254 150.194 208.779 153.723C208.303 157.253 211 157.754 213.182 164.129Z" fill="url(#paint13_linear_52_68)"/>
<path d="M20.7546 152.108C23.2402 151.901 24.1341 152.57 24.2702 152.933C23.7223 147.729 38.1036 165.397 42.7603 165.397C47.4171 165.397 46.3214 148.003 52.2108 148.003C58.1003 148.003 47.4171 159.645 52.2108 161.151C57.0046 162.658 65.2224 162.11 61.1135 165.397C57.8264 168.027 56.0915 175.715 55.6349 179.23C54.4023 178.591 51.4986 177.423 49.7455 177.861C47.9923 178.299 41.7103 179.413 38.7884 179.915C39.5645 178.546 39.0623 175.259 30.8445 173.067C20.5722 170.328 8.38239 162.521 8.38239 157.864C8.38239 153.207 21.394 162.658 24.2702 161.151C26.3234 160.076 21.4408 152.922 20.7546 152.108C20.7395 152.109 20.7244 152.11 20.7091 152.112C20.6501 152.003 20.6718 152.009 20.7546 152.108Z" fill="#396E72"/>
<path d="M277.175 153.491C279.182 153.867 279.691 154.724 279.693 155.107C280.757 149.932 282.396 166.888 286.045 167.967C289.695 169.047 298.39 155.436 303.006 156.801C307.621 158.167 295.908 166.983 299.233 169.556C302.558 172.129 309.155 173.502 304.992 175.738C301.661 177.527 286.998 177.111 285.632 180.415C284.849 179.509 286.761 185.199 285.262 185.218C283.762 185.237 280.687 184.635 278.253 184.445C279.254 183.297 284.88 180.193 279.069 176.162C271.804 171.123 264.491 160.725 265.827 156.207C267.163 151.69 274.649 163.874 277.335 163.079C279.253 162.512 277.479 154.441 277.175 153.491C277.163 153.489 277.151 153.487 277.138 153.485C277.123 153.366 277.138 153.377 277.175 153.491Z" fill="#396E72"/>
<path d="M20.4586 178.19C19.8012 179.067 20.0021 180.29 20.1847 180.792C20.3254 181.778 22.7087 181.66 23.8827 181.477C24.321 178.957 26.1654 177.962 27.0329 177.779C27.0329 176.957 26.348 175.999 24.9784 175.725C23.6088 175.451 21.2804 177.094 20.4586 178.19Z" fill="url(#paint14_linear_52_68)"/>
<path d="M122.16 176.042C119.202 175.385 119.741 169.65 120.243 169.194C124.626 167.002 122.434 173.851 127.502 174.398C132.546 174.944 130.805 181.324 130.384 182.869L130.378 182.89C130.049 184.095 127.091 185.31 126.269 185.63C126.452 184.214 127.529 181.164 125.447 181.384C123.365 181.603 120.654 185.219 119.558 186.999C119.421 187.227 121.475 181.931 118.325 178.781C115.71 176.166 124.489 181.521 125.036 179.329C125.584 177.138 125.858 176.864 122.16 176.042Z" fill="#4F5E3A"/>
<path d="M198.038 174.649C195.08 173.992 195.619 168.258 196.121 167.801C200.504 165.61 198.312 172.458 203.38 173.006C208.424 173.551 206.683 179.931 206.262 181.476L206.256 181.497C205.927 182.703 202.969 183.917 202.147 184.237C202.33 182.821 203.407 179.772 201.325 179.991C199.243 180.21 196.532 183.826 195.436 185.606C195.299 185.835 197.353 180.539 194.203 177.388C191.588 174.774 200.367 180.128 200.914 177.936C201.462 175.745 201.736 175.471 198.038 174.649Z" fill="#4F5E3A"/>
<path d="M40.6188 173.04C35.5573 174.821 34.2919 180.957 34.2919 183.803C36.525 187.143 40.6188 187.514 48.0623 186.772C54.017 186.178 52.5283 180.091 51.0396 177.122C49.675 175.019 45.6804 171.259 40.6188 173.04Z" fill="url(#paint15_linear_52_68)"/>
<path d="M267.097 177.35C262.574 180.238 262.741 186.501 263.389 189.271C266.325 192.015 270.396 191.443 277.474 189.024C283.137 187.088 280.3 181.501 278.174 178.95C276.366 177.213 271.619 174.462 267.097 177.35Z" fill="url(#paint16_linear_52_68)"/>
<path d="M124.597 187.048C125.766 187.727 127.849 189.451 126.825 190.916C125.88 190.657 124.06 189.753 123.607 188.081C123.757 189.291 123.706 191.105 122.663 191.775C122.012 191.107 120.845 189.364 121.325 187.688C121.026 188.673 120.02 190.646 118.241 191.071C117.873 190.409 117.521 188.971 118.656 187.978C117.762 188.516 116.18 189.131 114.374 188.864C114.785 188.2 116.086 186.945 118.227 186.708C116.198 186.792 113.119 186.781 112.679 186.229C113.796 185.773 116.483 184.92 118.288 185.157C116.816 184.681 113.874 183.527 113.881 182.723C115.136 182.664 117.737 182.715 118.799 183.33C118.206 182.868 117.25 181.823 116.881 180.292C118.142 180.749 120.645 181.862 120.567 182.665C120.725 181.718 121.294 179.758 122.308 179.498C123.086 180.156 124.458 181.803 123.725 183.136C124.724 182.419 127.048 180.975 128.35 180.941C128.705 181.422 128.899 182.519 127.132 183.338C128.396 182.849 130.387 182.244 131.137 182.637C130.73 183.201 129.54 184.393 127.922 184.838C128.819 184.628 130.446 184.385 131.301 184.758C130.954 185.044 130.133 185.561 129.214 185.737C130.411 185.655 132.105 185.711 132.462 186.385C131.767 186.752 129.798 187.368 127.489 186.904C128.059 187.169 129.161 187.988 129.007 189.147C127.897 188.618 125.461 187.457 124.597 187.048Z" fill="url(#paint17_radial_52_68)"/>
<path d="M123.975 186.977C124.812 187.595 126.218 189.111 125.152 190.226C124.429 189.96 123.102 189.119 123.006 187.746C122.931 188.729 122.596 190.185 121.643 190.659C121.224 190.081 120.562 188.607 121.222 187.288C120.82 188.061 119.686 189.587 118.177 189.817C117.986 189.262 117.934 188.083 119.014 187.355C118.203 187.732 116.823 188.129 115.403 187.802C115.843 187.294 117.101 186.365 118.872 186.307C117.216 186.248 114.724 186.048 114.458 185.577C115.437 185.279 117.751 184.76 119.174 185.063C118.059 184.589 115.864 183.477 115.999 182.832C117.025 182.862 119.123 183.064 119.884 183.625C119.478 183.217 118.873 182.316 118.823 181.062C119.77 181.508 121.616 182.559 121.422 183.2C121.704 182.448 122.483 180.907 123.346 180.761C123.869 181.338 124.713 182.748 123.903 183.775C124.829 183.26 126.944 182.244 128.004 182.297C128.214 182.706 128.192 183.601 126.629 184.15C127.732 183.835 129.442 183.471 129.985 183.834C129.564 184.263 128.407 185.148 127.025 185.405C127.786 185.292 129.143 185.198 129.774 185.551C129.447 185.759 128.699 186.124 127.926 186.208C128.909 186.217 130.271 186.367 130.451 186.932C129.828 187.184 128.135 187.557 126.34 187.04C126.759 187.289 127.518 188.016 127.206 188.939C126.393 188.444 124.609 187.359 123.975 186.977Z" fill="url(#paint18_radial_52_68)"/>
<path d="M123.352 186.751C124.058 187.273 125.246 188.553 124.346 189.494C123.735 189.269 122.615 188.559 122.535 187.401C122.471 188.23 122.188 189.459 121.384 189.859C121.031 189.371 120.471 188.127 121.028 187.014C120.689 187.667 119.732 188.954 118.459 189.149C118.298 188.68 118.253 187.685 119.165 187.071C118.481 187.389 117.316 187.723 116.118 187.448C116.489 187.019 117.55 186.235 119.046 186.186C117.648 186.136 115.545 185.967 115.319 185.569C116.146 185.318 118.099 184.88 119.3 185.136C118.359 184.735 116.506 183.798 116.621 183.253C117.486 183.278 119.257 183.449 119.899 183.922C119.557 183.577 119.046 182.818 119.004 181.759C119.803 182.135 121.361 183.022 121.198 183.563C121.435 182.929 122.093 181.628 122.821 181.505C123.263 181.992 123.975 183.182 123.291 184.049C124.073 183.614 125.858 182.756 126.752 182.801C126.93 183.147 126.912 183.902 125.593 184.365C126.523 184.099 127.967 183.793 128.425 184.099C128.07 184.461 127.093 185.208 125.927 185.425C126.568 185.329 127.714 185.249 128.247 185.548C127.971 185.724 127.339 186.032 126.687 186.103C127.516 186.11 128.666 186.237 128.818 186.713C128.293 186.926 126.863 187.241 125.349 186.805C125.702 187.014 126.343 187.629 126.079 188.408C125.393 187.99 123.887 187.074 123.352 186.751Z" fill="url(#paint19_radial_52_68)"/>
<path d="M124.152 186.208C124.729 186.436 124.687 187.086 124.595 187.383C124.236 186.979 123.422 187.095 123.06 187.204C122.987 187.673 122.359 188.004 122.014 188.128C122 188.134 121.985 188.139 121.969 188.143C121.983 188.139 121.998 188.133 122.014 188.128C122.301 187.994 121.995 187.347 121.797 187.026L121.16 187.523C120.801 187.253 121.076 186.742 121.259 186.52C120.097 187.136 119.447 187.138 119.267 187.062C119.773 187.021 120.326 186.382 120.54 186.068C120.176 186.288 119.664 186.303 119.454 186.282L119.999 185.896C118.409 185.884 118.074 185.621 118.105 185.491C118.044 185.176 119.046 185.279 119.739 185.4C119.453 185.291 119.263 185.031 119.194 184.886L120.188 184.782C119.394 184.731 119.14 184.048 119.113 183.713C119.984 183.943 121.619 184.347 121.187 184.12C120.756 183.894 121.01 183.654 121.192 183.562C121.521 183.844 122.143 184.351 122 184.127C121.858 183.902 122.367 183.479 122.639 183.295C123.384 183.468 123.014 184.433 122.688 184.979C122.899 184.659 123.301 184.215 123.624 184.419C123.857 184.565 123.85 184.748 123.774 184.895C124.057 184.608 124.617 184.283 125.431 184.433C126.441 184.619 125.003 185.248 124.157 185.539C124.808 185.544 125.872 185.813 126.322 185.946C125.359 185.939 123.576 185.98 124.152 186.208Z" fill="url(#paint20_radial_52_68)"/>
<path d="M95.1684 165.532L88.9684 172.972H101.448V176.572H83.5684V173.732L92.6084 163.012C94.6884 160.492 97.0484 157.812 97.0484 155.052C97.0484 152.692 95.3284 150.572 92.4884 150.572C89.8484 150.572 87.7284 152.252 87.0084 155.652L83.4884 154.692C84.5284 149.652 87.9684 146.932 92.6084 146.932C97.6884 146.932 100.968 150.372 100.968 154.772C100.968 158.932 97.9684 162.212 95.1684 165.532Z" fill="#425818"/>
<path d="M246.087 178.027C241.695 178.027 238.023 175.543 237.231 170.611L240.507 169.675C241.011 173.023 243.243 174.859 246.123 174.859C249.183 174.859 251.235 172.951 251.235 170.143C251.235 167.407 249.291 165.499 246.159 165.499H244.179V162.475H245.619C248.499 162.475 250.335 160.783 250.335 158.299C250.335 155.959 248.535 154.303 245.943 154.303C243.423 154.303 241.551 155.959 240.867 158.911L237.699 158.119C238.707 153.691 241.839 151.171 245.943 151.171C250.695 151.171 253.719 154.015 253.719 157.939C253.719 160.531 252.351 162.691 250.083 163.735C253.035 164.635 254.763 167.191 254.763 170.287C254.763 174.751 251.271 178.027 246.087 178.027Z" fill="#425818"/>
<path d="M165.763 169.808V137.758H162.563V133.158H170.613V169.808H165.763Z" fill="#425818"/>
<path d="M252.515 142.832C245.443 142.555 246.947 141.113 248.584 140.427L260.477 140.438L249.397 139.971C250.491 139.001 256.194 138.38 258.908 138.19C281.777 137.577 283.194 139.828 281.044 141.031C273.889 143.068 261.356 143.178 252.515 142.832Z" fill="#425818" stroke="#2C3D0C" stroke-linecap="round"/>
<path d="M253.218 142.645C246.58 142.385 247.97 141.073 249.503 140.43L259.93 140.463L250.239 139.992C251.262 139.083 256.654 138.47 259.2 138.292C280.658 137.719 281.996 139.831 279.983 140.958C273.276 142.868 261.516 142.97 253.218 142.645Z" fill="#3A4D15"/>
<path d="M260.007 140.444L259.932 142.724" stroke="#425818" stroke-width="3" stroke-linecap="round"/>
<path d="M259.989 140.465L266.152 142.32" stroke="#425818" stroke-width="3" stroke-linecap="round"/>
<path d="M259.911 140.471L271.982 141.32" stroke="#425818" stroke-width="3" stroke-linecap="round"/>
<path d="M259.861 140.451L274.246 140.189" stroke="#425818" stroke-width="3" stroke-linecap="round"/>
<path d="M259.854 140.456L272.713 138.989" stroke="#425818" stroke-width="3" stroke-linecap="round"/>
<path d="M285.137 184.637C285.427 186.371 285.387 190.187 282.9 191.578C282.35 190.587 281.733 188.103 283.148 185.442C281.967 187.25 279.956 189.779 278.314 190.035C278.467 188.66 279.332 185.424 281.57 183.374C280.24 184.566 277.217 186.689 275.196 186.11C275.59 184.931 276.839 182.665 278.912 182.015C277.545 182.182 275.489 182.003 274.193 180.43C275.273 179.763 277.776 178.852 279.913 179.936C278.041 178.71 275.349 176.654 275.561 175.582C277.037 175.678 280.321 176.253 281.648 177.785C280.872 176.136 279.54 172.556 280.417 171.425C281.583 172.173 283.811 173.968 284.078 175.542C284.058 174.495 284.351 172.385 285.687 169.978C286.299 171.459 287.29 174.69 286.35 175.772C287.516 174.539 290.14 172.148 291.312 172.452C291.283 173.896 290.701 177.133 288.612 178.531C290.267 178.18 293.873 177.68 295.052 178.494C294.843 179.409 293.823 181.088 291.385 181.074C293.025 181.221 295.429 181.685 295.661 182.737C294.692 183.265 292.355 184.161 290.452 183.717C291.467 184.015 293.16 184.749 293.505 185.843C292.891 186.017 291.61 186.204 290.612 185.843C291.752 186.521 293.179 187.722 292.761 188.912C291.753 188.969 289.356 188.536 287.833 186.35C288.046 187.102 288.125 188.99 286.733 190.526C286.333 189.042 285.453 185.787 285.137 184.637Z" fill="url(#paint21_radial_52_68)"/>
<path d="M284.668 184.124C284.732 185.553 284.323 188.627 282.179 189.495C281.833 188.64 281.579 186.572 282.983 184.57C281.852 185.908 279.979 187.743 278.628 187.782C278.887 186.688 279.904 184.166 281.913 182.74C280.722 183.566 278.073 184.97 276.498 184.296C276.932 183.385 278.164 181.685 279.902 181.372C278.781 181.367 277.14 181.013 276.248 179.611C277.185 179.183 279.296 178.704 280.914 179.797C279.524 178.616 277.553 176.682 277.83 175.839C279.012 176.068 281.606 176.867 282.527 178.239C282.063 176.829 281.34 173.805 282.16 172.982C283.027 173.705 284.649 175.38 284.709 176.677C284.796 175.831 285.241 174.158 286.556 172.353C286.905 173.61 287.386 176.318 286.521 177.096C287.584 176.219 289.938 174.558 290.854 174.924C290.688 176.086 289.9 178.638 288.076 179.552C289.446 179.438 292.406 179.404 293.278 180.181C293.019 180.898 292.031 182.148 290.064 181.888C291.373 182.173 293.268 182.793 293.352 183.666C292.517 183.993 290.542 184.477 289.05 183.925C289.84 184.268 291.134 185.034 291.305 185.952C290.793 186.03 289.739 186.049 288.97 185.656C289.823 186.32 290.857 187.434 290.402 188.352C289.583 188.295 287.691 187.701 286.676 185.781C286.774 186.41 286.652 187.941 285.377 189.038C285.2 187.8 284.81 185.084 284.668 184.124Z" fill="url(#paint22_radial_52_68)"/>
<path d="M284.366 183.392C284.42 184.598 284.075 187.193 282.265 187.926C281.973 187.204 281.759 185.459 282.944 183.768C281.989 184.898 280.409 186.447 279.268 186.479C279.487 185.556 280.345 183.427 282.041 182.224C281.036 182.921 278.799 184.106 277.47 183.538C277.837 182.769 278.877 181.334 280.343 181.069C279.397 181.066 278.012 180.766 277.259 179.583C278.05 179.222 279.832 178.818 281.198 179.74C280.024 178.744 278.361 177.112 278.595 176.4C279.592 176.593 281.782 177.268 282.559 178.425C282.167 177.235 281.558 174.683 282.249 173.988C282.981 174.598 284.35 176.013 284.401 177.107C284.474 176.393 284.85 174.981 285.96 173.457C286.254 174.518 286.66 176.804 285.93 177.46C286.827 176.721 288.814 175.319 289.587 175.627C289.447 176.608 288.782 178.762 287.242 179.534C288.399 179.437 290.897 179.408 291.633 180.064C291.415 180.669 290.58 181.724 288.92 181.505C290.025 181.746 291.625 182.269 291.695 183.006C290.991 183.282 289.324 183.69 288.064 183.224C288.731 183.514 289.823 184.16 289.968 184.935C289.535 185.001 288.646 185.017 287.997 184.686C288.717 185.245 289.589 186.186 289.206 186.961C288.514 186.913 286.917 186.411 286.061 184.791C286.144 185.321 286.04 186.614 284.964 187.54C284.815 186.495 284.486 184.203 284.366 183.392Z" fill="url(#paint23_radial_52_68)"/>
<path d="M285.657 183.155C285.916 183.859 285.175 184.75 284.771 185.108C284.896 184.3 284.055 183.924 283.619 183.838C283.047 184.452 282.136 184.505 281.699 184.451C281.68 184.451 281.661 184.448 281.642 184.443C281.66 184.446 281.679 184.448 281.699 184.451C282.095 184.452 282.528 183.335 282.702 182.75L281.604 183.031C281.582 182.411 282.378 181.871 282.779 181.678C281.092 181.779 280.518 181.351 280.442 181.125C280.931 181.403 282.109 180.866 282.637 180.563C282.08 180.634 281.614 180.315 281.451 180.147L282.349 179.962C280.966 178.891 280.957 178.297 281.125 178.134C281.413 177.649 282.182 178.458 282.658 179.089C282.525 178.745 282.64 178.253 282.737 178.001L283.723 178.513C283.081 177.915 283.598 176.782 283.937 176.291C284.453 177.193 285.451 178.847 285.317 178.24C285.184 177.634 285.668 177.464 285.926 177.455C285.91 178.071 285.906 179.2 286.024 178.788C286.142 178.377 287.049 178.115 287.487 178.036C287.953 178.775 286.582 179.892 285.704 180.448C286.236 180.135 287.07 179.775 287.134 180.276C287.179 180.638 286.974 180.892 286.749 181.049C287.308 180.83 288.152 180.742 288.704 181.494C289.389 182.427 287.445 182.362 286.387 182.212C286.953 182.651 287.596 183.735 287.846 184.223C287.009 183.574 285.398 182.451 285.657 183.155Z" fill="url(#paint24_radial_52_68)"/>
<path d="M292.174 82.9234C292.105 83.0862 291.952 83.3025 291.614 83.4155C290.438 83.8103 287.706 82.6365 286.383 81.986C286.445 82.0901 286.534 82.2086 286.658 82.3422C286.753 82.4408 287.041 82.7468 286.899 83.0819C286.867 83.1574 286.732 83.4013 286.343 83.3808C285.855 83.3548 284.848 82.8547 284.571 81.9518C284.528 81.8109 284.383 81.6717 284.182 81.4775C283.271 80.598 281.579 78.9607 281.593 70.8646C281.568 70.5755 281.004 65.0749 275.359 60.8959C275.793 61.8349 276.198 62.9929 275.93 63.623C275.858 63.7929 275.746 63.9262 275.597 64.016C275.33 64.1785 274.305 64.5398 272.3 62.3855C272.145 62.2332 270.981 60.9789 270.254 57.0438C270.14 56.8396 269.329 56.3674 268.68 55.9885C266.486 54.7064 263.175 52.7714 264.087 50.0311C264.105 49.9749 264.127 49.9172 264.15 49.8629C264.442 49.1762 265.059 48.6611 265.982 48.329C268.57 47.397 272.891 48.109 274.777 49.007C275.709 48.7146 280.378 47.3911 281.512 49.8914C281.524 49.9216 281.534 49.9509 281.539 49.9839C281.547 50.0374 281.572 50.2288 281.472 50.4648C281.199 51.1067 280.373 51.3937 279.008 51.3213C281.064 52.8681 284.825 56.3225 285.605 61.3548C286.653 68.1245 284.872 73.2175 284.796 73.4302C284.793 73.4373 284.79 73.4443 284.787 73.4514C284.781 73.4656 284.775 73.4797 284.767 73.4929C284.765 73.4976 284.749 73.5273 284.729 73.5745C284.516 74.0771 284.022 75.8839 286.604 78.0298C287.981 79.1743 289.192 79.8696 290.165 80.4271C291.511 81.1991 292.4 81.7101 292.23 82.727C292.219 82.7977 292.198 82.8668 292.171 82.9305L292.174 82.9234Z" fill="url(#paint25_linear_52_68)"/>
<path d="M285.6 139.079C285.531 139.241 285.378 139.458 285.04 139.571C283.864 139.965 281.132 138.792 279.809 138.141C279.871 138.245 279.96 138.364 280.084 138.497C280.179 138.596 280.467 138.902 280.324 139.237C280.292 139.313 280.158 139.556 279.769 139.536C279.281 139.51 278.274 139.01 277.997 138.107C277.953 137.966 277.809 137.827 277.608 137.633C276.697 136.753 275.005 135.116 275.019 127.02C274.994 126.731 274.43 121.23 268.784 117.051C269.219 117.99 269.624 119.148 269.356 119.778C269.284 119.948 269.172 120.081 269.022 120.171C268.756 120.334 267.73 120.695 265.726 118.541C265.571 118.388 264.407 117.134 263.68 113.199C263.566 112.995 262.755 112.523 262.106 112.144C259.912 110.862 256.6 108.927 257.513 106.186C257.531 106.13 257.553 106.072 257.576 106.018C257.867 105.331 258.484 104.816 259.408 104.484C261.996 103.552 266.317 104.264 268.203 105.162C269.134 104.87 273.804 103.546 274.938 106.047C274.95 106.077 274.96 106.106 274.965 106.139C274.973 106.193 274.998 106.384 274.897 106.62C274.625 107.262 273.798 107.549 272.434 107.476C274.49 109.023 278.251 112.478 279.031 117.51C280.079 124.28 278.298 129.373 278.222 129.585C278.219 129.592 278.216 129.599 278.213 129.607C278.207 129.621 278.201 129.635 278.192 129.648C278.19 129.653 278.175 129.682 278.155 129.73C277.942 130.232 277.448 132.039 280.029 134.185C281.407 135.329 282.618 136.025 283.59 136.582C284.936 137.354 285.825 137.865 285.655 138.882C285.645 138.953 285.624 139.022 285.597 139.086L285.6 139.079Z" fill="url(#paint26_linear_52_68)"/>
<path d="M54.1922 132.504C54.2613 132.667 54.4144 132.883 54.752 132.996C55.9278 133.391 58.6602 132.217 59.9827 131.567C59.9211 131.671 59.8322 131.789 59.7078 131.923C59.6132 132.022 59.3254 132.328 59.4676 132.663C59.4997 132.738 59.6338 132.982 60.0234 132.962C60.5109 132.936 61.5185 132.436 61.7953 131.533C61.8385 131.392 61.9828 131.252 62.1844 131.058C63.095 130.179 64.7868 128.541 64.7729 120.445C64.7978 120.156 65.3621 114.656 71.0076 110.477C70.5735 111.416 70.1683 112.574 70.4357 113.204C70.5079 113.374 70.6202 113.507 70.7697 113.597C71.0364 113.759 72.0615 114.121 74.0659 111.966C74.2212 111.814 75.3849 110.56 76.1125 106.625C76.2263 106.42 77.0368 105.948 77.6865 105.569C79.88 104.287 83.1917 102.352 82.2791 99.6119C82.2608 99.5557 82.2391 99.498 82.2161 99.4437C81.9245 98.757 81.3076 98.2419 80.384 97.9098C77.7965 96.9779 73.4754 97.6898 71.5895 98.5878C70.6577 98.2954 65.9878 96.9719 64.8545 99.4722C64.8423 99.5025 64.8324 99.5317 64.8269 99.5647C64.819 99.6182 64.7944 99.8096 64.8946 100.046C65.1671 100.688 65.9935 100.974 67.3582 100.902C65.3021 102.449 61.5408 105.903 60.761 110.936C59.7133 117.705 61.4938 122.798 61.5701 123.011C61.5731 123.018 61.5761 123.025 61.5791 123.032C61.5851 123.046 61.5912 123.061 61.5995 123.074C61.6015 123.078 61.6169 123.108 61.637 123.155C61.8503 123.658 62.3443 125.465 59.7627 127.611C58.3853 128.755 57.1738 129.45 56.2017 130.008C54.8555 130.78 53.9667 131.291 54.1366 132.308C54.1471 132.378 54.1681 132.448 54.1952 132.511L54.1922 132.504Z" fill="url(#paint27_linear_52_68)"/>
<path d="M46.6687 77.9927C46.7379 78.1556 46.891 78.3719 47.2285 78.4848C48.4044 78.8797 51.1368 77.7058 52.4593 77.0553C52.3977 77.1594 52.3088 77.278 52.1844 77.4115C52.0898 77.5102 51.802 77.8162 51.9442 78.1513C51.9763 78.2268 52.1104 78.4706 52.5 78.4501C52.9875 78.4242 53.9951 77.924 54.2719 77.0211C54.3151 76.8802 54.4593 76.741 54.661 76.5468C55.5716 75.6673 57.2634 74.03 57.2495 65.934C57.2744 65.6449 57.8387 60.1442 63.4842 55.9652C63.0501 56.9042 62.6449 58.0622 62.9123 58.6923C62.9845 58.8622 63.0968 58.9956 63.2463 59.0853C63.513 59.2478 64.5381 59.6092 66.5425 57.4549C66.6978 57.3026 67.8615 56.0483 68.589 52.1132C68.7029 51.9089 69.5134 51.4367 70.1631 51.0579C72.3566 49.7758 75.6683 47.8408 74.7557 45.1005C74.7374 45.0442 74.7157 44.9865 74.6927 44.9323C74.4011 44.2455 73.7842 43.7304 72.8606 43.3983C70.2731 42.4664 65.952 43.1783 64.0661 44.0763C63.1343 43.784 58.4644 42.4604 57.3311 44.9607C57.3189 44.991 57.309 45.0202 57.3035 45.0532C57.2956 45.1067 57.271 45.2982 57.3712 45.5342C57.6437 46.176 58.4701 46.463 59.8348 46.3906C57.7787 47.9374 54.0174 51.3918 53.2376 56.4241C52.1899 63.1939 53.9704 68.2868 54.0467 68.4995C54.0497 68.5066 54.0527 68.5137 54.0557 68.5208C54.0617 68.5349 54.0677 68.5491 54.0761 68.5622C54.0781 68.567 54.0935 68.5966 54.1135 68.6438C54.3269 69.1465 54.8209 70.9532 52.2393 73.0991C50.8619 74.2436 49.6504 74.939 48.6783 75.4965C47.3321 76.2684 46.4433 76.7794 46.6132 77.7963C46.6237 77.867 46.6447 77.9361 46.6717 77.9998L46.6687 77.9927Z" fill="url(#paint28_linear_52_68)"/>
<path d="M270.054 56.3234C269.986 56.4864 269.833 56.7031 269.496 56.817C268.321 57.2152 265.585 56.0492 264.261 55.4024C264.323 55.5064 264.412 55.6246 264.537 55.7578C264.632 55.8562 264.921 56.1614 264.779 56.4969C264.747 56.5725 264.614 56.8167 264.224 56.7973C263.737 56.7728 262.728 56.2755 262.448 55.3734C262.405 55.2326 262.26 55.0938 262.058 54.9002C261.145 54.0233 259.448 52.3908 259.439 44.2947C259.414 44.0057 258.834 38.5067 253.176 34.3438C253.613 35.2816 254.021 36.4384 253.756 37.0692C253.684 37.2393 253.572 37.373 253.423 37.4632C253.157 37.6264 252.133 37.9907 250.122 35.8421C249.966 35.6903 248.799 34.4393 248.06 30.5063C247.946 30.3023 247.134 29.8324 246.483 29.4555C244.286 28.1796 240.969 26.254 241.874 23.5112C241.892 23.4548 241.913 23.3971 241.936 23.3428C242.226 22.6552 242.841 22.1383 243.764 21.8036C246.349 20.8643 250.672 21.5639 252.56 22.4566C253.491 22.1616 258.158 20.8248 259.298 23.3218C259.31 23.352 259.32 23.3813 259.326 23.4142C259.334 23.4677 259.359 23.6591 259.259 23.8954C258.989 24.538 258.163 24.8273 256.798 24.7588C258.859 26.2998 262.63 29.7434 263.424 34.7735C264.491 41.5403 262.725 46.6383 262.649 46.8512C262.646 46.8583 262.643 46.8654 262.64 46.8724C262.634 46.8866 262.628 46.9008 262.62 46.914C262.618 46.9187 262.603 46.9484 262.583 46.9957C262.371 47.4989 261.882 49.3071 264.47 51.4456C265.85 52.5862 267.064 53.2781 268.038 53.8328C269.386 54.601 270.276 55.1094 270.109 56.1268C270.099 56.1975 270.078 56.2667 270.051 56.3304L270.054 56.3234Z" fill="url(#paint29_linear_52_68)"/>
<path d="M68.7886 51.3928C68.8573 51.5558 69.0097 51.7726 69.347 51.8865C70.5217 52.2847 73.2575 51.1186 74.5818 50.4718C74.5199 50.5758 74.4306 50.6941 74.3059 50.8273C74.211 50.9257 73.9223 51.2309 74.0636 51.5664C74.0954 51.642 74.2289 51.8862 74.6185 51.8668C75.1061 51.8422 76.1151 51.345 76.3945 50.4428C76.4381 50.3021 76.5827 50.1633 76.7849 49.9696C77.698 49.0927 79.3945 47.4603 79.4036 39.3642C79.4294 39.0752 80.0093 33.5762 85.6667 29.4132C85.2299 30.351 84.8214 31.5078 85.0871 32.1387C85.1587 32.3088 85.2706 32.4425 85.4199 32.5326C85.6861 32.6959 86.7102 33.0602 88.7207 30.9116C88.8765 30.7597 90.0437 29.5087 90.7825 25.5757C90.8969 25.3718 91.7087 24.9019 92.3595 24.5249C94.5566 23.2491 97.8739 21.3235 96.969 18.5806C96.9509 18.5243 96.9294 18.4666 96.9065 18.4122C96.6169 17.7247 96.0014 17.2078 95.0788 16.8731C92.4939 15.9338 88.1708 16.6334 86.2824 17.5261C85.3515 17.2311 80.6853 15.8942 79.5449 18.3913C79.5326 18.4215 79.5227 18.4507 79.5171 18.4837C79.509 18.5372 79.4839 18.7286 79.5834 18.9648C79.854 19.6075 80.6797 19.8968 82.0445 19.8283C79.984 21.3692 76.2129 24.8129 75.4188 29.843C74.3519 36.6097 76.1178 41.7077 76.1936 41.9206C76.1965 41.9277 76.1995 41.9348 76.2025 41.9419C76.2085 41.9561 76.2144 41.9703 76.2228 41.9834C76.2248 41.9882 76.2401 42.0179 76.26 42.0651C76.4719 42.5684 76.9608 44.3765 74.3731 46.5151C72.9924 47.6557 71.7789 48.3476 70.8052 48.9023C69.4569 49.6704 68.5666 50.1789 68.7336 51.1962C68.7439 51.267 68.7647 51.3361 68.7916 51.3999L68.7886 51.3928Z" fill="url(#paint30_linear_52_68)"/>
<path d="M281.876 141.978C281.701 142 281.437 141.977 281.169 141.742C280.237 140.923 279.879 137.971 279.777 136.501C279.718 136.606 279.66 136.743 279.607 136.917C279.57 137.049 279.45 137.451 279.088 137.497C279.007 137.507 278.729 137.514 278.551 137.166C278.328 136.732 278.254 135.609 278.896 134.916C278.996 134.808 279.044 134.614 279.111 134.342C279.414 133.113 279.979 130.827 286.986 126.771C287.223 126.605 291.696 123.353 292.473 116.372C291.879 117.219 291.081 118.151 290.402 118.237C290.219 118.26 290.047 118.23 289.894 118.145C289.62 117.996 288.792 117.292 289.648 114.476C289.702 114.265 290.201 112.629 293.238 110.023C293.358 109.822 293.359 108.884 293.36 108.132C293.366 105.591 293.375 101.755 296.203 101.168C296.261 101.155 296.322 101.145 296.38 101.138C297.12 101.045 297.876 101.319 298.627 101.951C300.733 103.72 302.288 107.814 302.459 109.895C303.18 110.554 306.671 113.927 305.079 116.163C305.059 116.189 305.038 116.212 305.013 116.233C304.97 116.267 304.817 116.384 304.563 116.416C303.871 116.503 303.208 115.933 302.584 114.717C302.28 117.272 301.183 122.259 297.224 125.462C291.897 129.769 286.599 130.789 286.377 130.83C286.369 130.83 286.362 130.831 286.354 130.832C286.339 130.834 286.324 130.836 286.308 130.836C286.303 130.836 286.27 130.838 286.219 130.844C285.677 130.912 283.867 131.393 283.308 134.703C283.011 136.469 283.018 137.866 283.025 138.987C283.034 140.538 283.038 141.564 282.074 141.928C282.007 141.954 281.937 141.971 281.868 141.979L281.876 141.978Z" fill="url(#paint31_linear_52_68)"/>
<path d="M55.0492 135.886C55.2247 135.908 55.4887 135.885 55.7559 135.649C56.6882 134.831 57.0461 131.879 57.1481 130.409C57.2072 130.514 57.265 130.651 57.318 130.825C57.3558 130.957 57.4757 131.359 57.8369 131.405C57.9183 131.415 58.1966 131.421 58.3745 131.074C58.5971 130.64 58.6709 129.517 58.0293 128.824C57.9292 128.716 57.8813 128.521 57.8147 128.25C57.5118 127.02 56.9462 124.735 49.9393 120.679C49.7019 120.512 45.2295 117.261 44.4528 110.28C45.0466 111.127 45.8442 112.059 46.5234 112.144C46.7065 112.167 46.8782 112.137 47.0309 112.053C47.3054 111.904 48.133 111.199 47.2774 108.384C47.2238 108.173 46.724 106.537 43.6872 103.931C43.5678 103.73 43.5667 102.792 43.5656 102.04C43.5592 99.4988 43.5502 95.6632 40.7223 95.0755C40.6645 95.063 40.6037 95.0528 40.5452 95.0455C39.805 94.9525 39.0496 95.2271 38.2985 95.8588C36.1926 97.6277 34.637 101.721 34.466 103.803C33.745 104.462 30.2543 107.835 31.8466 110.071C31.8667 110.096 31.887 110.12 31.9127 110.141C31.955 110.175 32.1082 110.292 32.3626 110.324C33.0545 110.411 33.7178 109.841 34.3409 108.624C34.6452 111.179 35.7421 116.167 39.7012 119.37C45.0281 123.677 50.3261 124.697 50.5483 124.737C50.5559 124.738 50.5636 124.739 50.5712 124.74C50.5865 124.742 50.6017 124.744 50.6173 124.743C50.6224 124.744 50.6558 124.746 50.7067 124.752C51.2485 124.82 53.0588 125.301 53.617 128.611C53.9145 130.377 53.907 131.774 53.9006 132.895C53.8917 134.446 53.8869 135.471 54.8515 135.836C54.9179 135.862 54.9882 135.879 55.0569 135.887L55.0492 135.886Z" fill="url(#paint32_linear_52_68)"/>
<path d="M299.779 101.226C299.775 101.402 299.713 101.66 299.442 101.891C298.497 102.695 295.524 102.621 294.055 102.509C294.151 102.583 294.277 102.66 294.442 102.738C294.567 102.794 294.948 102.971 294.941 103.335C294.939 103.417 294.905 103.693 294.536 103.819C294.074 103.976 292.952 103.887 292.36 103.152C292.267 103.037 292.081 102.962 291.822 102.856C290.65 102.379 288.47 101.488 285.472 93.9678C285.341 93.7087 282.771 88.8126 275.976 87.0334C276.728 87.7436 277.535 88.6677 277.521 89.3521C277.518 89.5366 277.463 89.7022 277.358 89.8411C277.171 90.0912 276.353 90.8079 273.692 89.5537C273.491 89.4702 271.944 88.7387 269.805 85.3566C269.623 85.2093 268.695 85.0725 267.951 84.9625C265.438 84.5883 261.644 84.024 261.472 81.1409C261.468 81.0818 261.467 81.0202 261.468 80.9613C261.483 80.2154 261.864 79.5077 262.598 78.8559C264.653 77.0284 268.929 76.0819 271.014 76.2141C271.77 75.5961 275.613 72.6304 277.595 74.5298C277.617 74.5533 277.637 74.5768 277.655 74.6054C277.682 74.6521 277.776 74.8207 277.771 75.077C277.756 75.7742 277.096 76.3479 275.802 76.7883C278.286 77.4594 283.063 79.2668 285.658 83.648C289.149 89.5423 289.391 94.9321 289.399 95.1579C289.399 95.1656 289.399 95.1733 289.398 95.181C289.398 95.1964 289.398 95.2117 289.395 95.2271C289.395 95.2322 289.392 95.2655 289.391 95.3167C289.379 95.8627 289.593 97.7235 292.787 98.7552C294.492 99.3052 295.875 99.5 296.985 99.6559C298.521 99.8718 299.537 100.016 299.757 101.023C299.774 101.092 299.78 101.164 299.778 101.233L299.779 101.226Z" fill="url(#paint33_linear_52_68)"/>
<path d="M39.0643 96.2951C39.0679 96.4719 39.1296 96.7297 39.4009 96.9601C40.3455 97.764 43.3185 97.6907 44.7881 97.5788C44.6922 97.6525 44.5655 97.7295 44.4004 97.8072C44.2759 97.8636 43.8949 98.0405 43.9023 98.4045C43.904 98.4865 43.9378 98.7628 44.307 98.8886C44.7692 99.0459 45.8905 98.9564 46.4833 98.2213C46.5759 98.1066 46.7615 98.031 47.0209 97.9257C48.1933 97.448 50.3728 96.5575 53.3713 89.0372C53.502 88.7782 56.0718 83.8821 62.8667 82.1029C62.1145 82.8131 61.3076 83.7372 61.3215 84.4216C61.3252 84.6061 61.3799 84.7717 61.4853 84.9106C61.6724 85.1606 62.4896 85.8774 65.1514 84.6232C65.3523 84.5396 66.899 83.8082 69.0381 80.426C69.2197 80.2788 70.1477 80.1419 70.8917 80.0319C73.4047 79.6578 77.1986 79.0934 77.3707 76.2103C77.3747 76.1513 77.376 76.0897 77.3748 76.0307C77.3596 75.2848 76.9785 74.5772 76.2447 73.9254C74.1895 72.0979 69.9137 71.1514 67.8291 71.2835C67.0729 70.6655 63.2304 67.6999 61.2484 69.5992C61.2258 69.6228 61.2057 69.6463 61.1884 69.6748C61.1611 69.7215 61.0671 69.8901 61.0723 70.1464C61.0865 70.8436 61.7469 71.4174 63.0405 71.8578C60.5566 72.5288 55.7803 74.3363 53.1846 78.7174C49.694 84.6118 49.4523 90.0016 49.444 90.2274C49.4442 90.2351 49.4444 90.2428 49.4445 90.2504C49.4448 90.2658 49.4451 90.2812 49.448 90.2965C49.4481 90.3017 49.4514 90.3349 49.4524 90.3862C49.4635 90.9321 49.25 92.793 46.0555 93.8246C44.3512 94.3747 42.9679 94.5695 41.8582 94.7254C40.3215 94.9412 39.3064 95.085 39.0858 96.0921C39.0693 96.1616 39.0631 96.2336 39.0645 96.3028L39.0643 96.2951Z" fill="url(#paint34_linear_52_68)"/>
<path d="M189.801 189.095C188.251 190.233 184.255 192.333 180.669 191.622C181.224 190.742 183.272 188.99 187.253 188.353C184.359 188.655 180.002 188.861 178.322 188.022C179.881 187.348 183.985 186.063 188.042 186.259C185.658 186.128 180.852 185.503 179.712 183.973C181.276 183.552 184.704 183.038 187.164 183.914C185.813 183.19 184.229 181.862 184.746 180.211C186.367 180.486 189.469 181.475 190.184 183.355C189.845 181.554 189.661 178.801 190.957 178.331C192.128 179.266 194.358 181.549 193.911 183.195C194.955 181.813 197.525 179.024 199.454 178.919C199.681 180.032 199.736 182.363 198.332 183.398C199.402 182.804 201.846 181.804 205.494 181.263C204.484 182.453 201.982 184.844 200.05 184.885C202.334 184.895 207.077 185.132 207.769 186.002C206.245 186.788 202.383 188.243 199.133 187.772C200.923 188.566 204.546 190.442 204.717 191.6C203.587 191.985 200.966 192.31 198.88 190.845C200.141 191.907 201.729 193.602 200.836 194.326C199.453 194.041 196.511 193.143 195.333 191.759C195.898 192.531 196.593 193.951 195.755 194.767C195.046 194.497 193.748 193.835 193.264 193.038C193.542 194.097 193.523 195.618 191.928 196.031C191.001 195.46 189.386 193.787 190.345 191.659C189.747 192.205 187.855 193.303 185.062 193.327C186.257 192.261 188.879 189.923 189.801 189.095Z" fill="url(#paint35_radial_52_68)"/>
<path d="M189.93 188.529C188.502 189.362 184.959 190.829 182.21 190.031C182.8 189.348 184.729 188.046 188.017 187.77C185.654 187.839 182.136 187.741 180.932 186.955C182.29 186.501 185.785 185.705 188.995 186.112C187.112 185.86 183.373 185.058 182.716 183.742C184.036 183.494 186.862 183.284 188.683 184.148C187.723 183.476 186.678 182.297 187.366 180.984C188.616 181.306 190.931 182.301 191.19 183.876C191.219 182.388 191.529 180.134 192.644 179.83C193.424 180.664 194.828 182.659 194.197 183.973C195.261 182.911 197.779 180.796 199.338 180.827C199.335 181.748 198.992 183.65 197.697 184.408C198.651 183.989 200.771 183.323 203.777 183.105C202.772 184.013 200.375 185.808 198.823 185.724C200.648 185.871 204.399 186.353 204.809 187.104C203.459 187.652 200.131 188.602 197.611 188.02C198.91 188.776 201.494 190.526 201.438 191.479C200.471 191.724 198.321 191.829 196.898 190.509C197.729 191.45 198.717 192.928 197.883 193.464C196.824 193.147 194.622 192.236 193.91 191.036C194.234 191.7 194.553 192.9 193.747 193.513C193.225 193.25 192.298 192.631 192.044 191.953C192.09 192.832 191.822 194.07 190.478 194.309C189.832 193.788 188.819 192.326 189.939 190.651C189.371 191.06 187.675 191.839 185.439 191.688C186.571 190.893 189.056 189.148 189.93 188.529Z" fill="url(#paint36_radial_52_68)"/>
<path d="M190.43 187.941C189.225 188.644 186.234 189.883 183.914 189.209C184.412 188.632 186.04 187.533 188.815 187.3C186.82 187.359 183.851 187.276 182.835 186.613C183.982 186.23 186.931 185.557 189.641 185.901C188.051 185.688 184.896 185.011 184.341 183.901C185.455 183.692 187.841 183.514 189.378 184.243C188.567 183.676 187.685 182.681 188.265 181.573C189.321 181.845 191.275 182.685 191.493 184.014C191.518 182.758 191.78 180.855 192.72 180.599C193.379 181.303 194.563 182.987 194.031 184.096C194.929 183.199 197.054 181.414 198.371 181.44C198.367 182.217 198.078 183.823 196.985 184.463C197.79 184.109 199.58 183.547 202.117 183.363C201.269 184.129 199.245 185.644 197.936 185.573C199.476 185.698 202.642 186.105 202.987 186.738C201.849 187.201 199.039 188.002 196.912 187.512C198.009 188.149 200.19 189.626 200.143 190.431C199.326 190.637 197.512 190.726 196.311 189.612C197.012 190.406 197.846 191.654 197.142 192.106C196.249 191.839 194.39 191.07 193.789 190.057C194.062 190.617 194.332 191.63 193.652 192.148C193.211 191.926 192.428 191.403 192.214 190.831C192.252 191.573 192.027 192.618 190.892 192.82C190.347 192.38 189.492 191.146 190.437 189.732C189.958 190.077 188.527 190.735 186.639 190.607C187.595 189.936 189.692 188.463 190.43 187.941Z" fill="url(#paint37_radial_52_68)"/>
<path d="M191.788 188.58C191.281 189.127 189.716 189.18 188.997 189.139C189.944 188.762 189.609 188.051 189.324 187.743C188.193 187.743 187.354 187.227 187.034 186.936C187.018 186.925 187.004 186.912 186.993 186.898C187.006 186.91 187.019 186.923 187.034 186.936C187.374 187.174 188.907 186.811 189.663 186.589L188.427 186.089C189.052 185.731 190.298 185.906 190.842 186.038C189.285 185.086 189.236 184.505 189.405 184.333C189.537 184.78 191.109 185.186 191.879 185.333C191.325 185.039 191.255 184.583 191.29 184.392L192.254 184.826C192.176 183.403 192.784 183.067 193.099 183.077C193.849 182.979 193.672 183.889 193.427 184.524C193.669 184.254 194.28 184.048 194.625 183.966L194.942 184.841C195.01 184.123 196.631 183.802 197.434 183.731C196.941 184.542 196.083 186.059 196.598 185.641C197.112 185.224 197.705 185.419 197.937 185.568C197.284 185.901 196.109 186.527 196.638 186.369C197.167 186.21 198.218 186.606 198.678 186.824C198.312 187.514 195.972 187.317 194.639 187.101C195.422 187.245 196.514 187.543 196.048 187.86C195.712 188.089 195.271 188.108 194.915 188.06C195.623 188.273 196.442 188.728 196.136 189.477C195.757 190.405 194.151 189.207 193.395 188.492C193.427 189.074 192.854 190.062 192.564 190.483C192.517 189.621 192.295 188.034 191.788 188.58Z" fill="url(#paint38_radial_52_68)"/>
<path d="M53.0085 184.301C51.8206 185.125 48.7597 186.647 46.0194 186.143C46.4462 185.508 48.0166 184.242 51.0622 183.774C48.8487 183.998 45.5161 184.157 44.2335 183.556C45.4271 183.067 48.569 182.132 51.6701 182.264C49.8482 182.175 46.1743 181.737 45.3065 180.638C46.5033 180.331 49.1258 179.952 51.005 180.577C49.9733 180.059 48.7656 179.107 49.1648 177.916C50.4041 178.11 52.7734 178.815 53.3154 180.167C53.0608 178.871 52.927 176.888 53.9192 176.547C54.8123 177.218 56.5119 178.856 56.1659 180.042C56.9676 179.045 58.9396 177.03 60.4149 176.949C60.5856 177.751 60.6225 179.429 59.5462 180.178C60.3653 179.747 62.2367 179.021 65.0278 178.623C64.2529 179.482 62.3336 181.21 60.8558 181.244C62.6027 181.246 66.2285 181.405 66.7559 182.03C65.5884 182.6 62.6322 183.657 60.1479 183.326C61.5148 183.893 64.2806 185.236 64.4085 186.069C63.5432 186.349 61.5381 186.589 59.9471 185.54C60.9081 186.301 62.1186 187.518 61.434 188.041C60.377 187.84 58.1296 187.2 57.232 186.206C57.6625 186.761 58.1904 187.782 57.5474 188.371C57.0057 188.179 56.0153 187.705 55.647 187.132C55.8568 187.894 55.8389 188.989 54.6179 189.291C53.9104 188.882 52.68 187.681 53.4179 186.146C52.96 186.541 51.5103 187.336 49.3743 187.36C50.2911 186.59 52.3015 184.9 53.0085 184.301Z" fill="url(#paint39_radial_52_68)"/>
<path d="M53.109 183.893C52.0148 184.497 49.3016 185.562 47.2018 184.994C47.6549 184.501 49.1326 183.558 51.6477 183.351C49.8403 183.407 47.1506 183.345 46.2321 182.782C47.2717 182.452 49.9461 181.87 52.3997 182.155C50.9602 181.978 48.1034 181.41 47.6044 180.464C48.6143 180.282 50.7757 180.124 52.1662 180.741C51.4336 180.26 50.6373 179.414 51.1662 178.466C52.1218 178.695 53.8897 179.406 54.0838 180.54C54.1093 179.468 54.3523 177.844 55.2051 177.622C55.7999 178.221 56.8682 179.654 56.3824 180.602C57.1987 179.835 59.1293 178.305 60.3218 178.324C60.3168 178.987 60.0499 180.358 59.0582 180.906C59.7884 180.602 61.4111 180.118 63.7107 179.953C62.94 180.609 61.1022 181.908 59.9159 181.851C61.3108 181.953 64.1784 182.291 64.4894 182.831C63.4563 183.228 60.9087 183.92 58.983 183.508C59.9746 184.049 61.9466 185.303 61.9016 185.99C61.1612 186.168 59.5173 186.249 58.432 185.302C59.0651 185.978 59.817 187.039 59.1778 187.427C58.3693 187.202 56.6873 186.551 56.1458 185.689C56.3917 186.166 56.6331 187.029 56.0155 187.473C55.6169 187.285 54.9095 186.842 54.7165 186.354C54.7495 186.987 54.5419 187.879 53.5135 188.054C53.0207 187.681 52.25 186.63 53.1102 185.421C52.6749 185.717 51.3766 186.282 49.6664 186.179C50.5346 185.604 52.4386 184.341 53.109 183.893Z" fill="url(#paint40_radial_52_68)"/>
<path d="M53.4925 183.469C52.569 183.978 50.279 184.877 48.5068 184.398C48.8891 183.981 50.1364 183.186 52.2591 183.011C50.7336 183.058 48.4635 183.006 47.6883 182.531C48.5658 182.252 50.823 181.761 52.8938 182.001C51.6789 181.852 49.2677 181.372 48.8465 180.574C49.6989 180.421 51.5232 180.287 52.6967 180.808C52.0785 180.402 51.4063 179.688 51.8527 178.888C52.6593 179.082 54.1514 179.681 54.3153 180.638C54.3368 179.734 54.5419 178.363 55.2616 178.176C55.7637 178.681 56.6653 179.891 56.2553 180.691C56.9443 180.043 58.5738 178.752 59.5802 178.768C59.576 179.327 59.3508 180.485 58.5137 180.948C59.13 180.691 60.4996 180.282 62.4405 180.143C61.79 180.697 60.2389 181.793 59.2376 181.745C60.415 181.831 62.8353 182.116 63.0977 182.572C62.2258 182.907 60.0756 183.492 58.4503 183.144C59.2872 183.6 60.9515 184.658 60.9136 185.238C60.2887 185.389 58.9012 185.457 57.9852 184.657C58.5195 185.228 59.1542 186.124 58.6147 186.451C57.9323 186.261 56.5127 185.712 56.0556 184.984C56.2631 185.387 56.4669 186.116 55.9456 186.49C55.6092 186.331 55.0121 185.957 54.8492 185.545C54.8771 186.08 54.7019 186.833 53.8339 186.981C53.4179 186.665 52.7675 185.779 53.4935 184.758C53.1261 185.008 52.0303 185.485 50.5869 185.398C51.3197 184.912 52.9266 183.847 53.4925 183.469Z" fill="url(#paint41_radial_52_68)"/>
<path d="M54.5292 183.926C54.1398 184.321 52.9433 184.363 52.3938 184.335C53.1186 184.061 52.8645 183.55 52.6469 183.328C51.7824 183.331 51.1418 182.962 50.898 182.753C50.8855 182.745 50.8751 182.736 50.867 182.726C50.8765 182.734 50.8868 182.744 50.898 182.753C51.1578 182.924 52.3302 182.659 52.9095 182.497L51.9652 182.14C52.4442 181.88 53.3963 182.003 53.8124 182.097C52.6242 181.415 52.5876 180.997 52.7178 180.873C52.8176 181.195 54.0185 181.483 54.6065 181.587C54.1839 181.376 54.1317 181.049 54.1584 180.911L54.8947 181.221C54.8385 180.197 55.3047 179.953 55.5448 179.959C56.1192 179.887 55.9811 180.543 55.7928 181.001C55.9782 180.805 56.446 180.656 56.71 180.596L56.95 181.225C57.0039 180.708 58.2446 180.473 58.8582 180.42C58.4793 181.005 57.82 182.099 58.2145 181.798C58.6089 181.496 59.0618 181.634 59.2389 181.741C58.7384 181.983 57.8385 182.437 58.2432 182.321C58.6479 182.206 59.4512 182.488 59.8022 182.644C59.5208 183.142 57.7314 183.005 56.7127 182.854C57.311 182.955 58.1457 183.167 57.7884 183.397C57.5312 183.562 57.1939 183.577 56.9218 183.544C57.4626 183.695 58.0876 184.021 57.8522 184.561C57.5601 185.23 56.3347 184.371 55.7586 183.858C55.7815 184.277 55.3411 184.99 55.118 185.294C55.084 184.673 54.9186 183.531 54.5292 183.926Z" fill="url(#paint42_radial_52_68)"/>
<defs>
<linearGradient id="paint0_linear_52_68" x1="289.701" y1="96.9706" x2="289.701" y2="181.244" gradientUnits="userSpaceOnUse">
<stop stop-color="#819860"/>
<stop offset="1" stop-color="#2A321F"/>
</linearGradient>
<linearGradient id="paint1_linear_52_68" x1="285.249" y1="91.7659" x2="285.249" y2="179.286" gradientUnits="userSpaceOnUse">
<stop offset="0.305" stop-color="#475534"/>
<stop offset="1" stop-color="#819860"/>
</linearGradient>
<linearGradient id="paint2_linear_52_68" x1="277.839" y1="82.1785" x2="277.839" y2="179.183" gradientUnits="userSpaceOnUse">
<stop stop-color="#819860"/>
<stop offset="1" stop-color="#475534"/>
<stop offset="1.0001" stop-color="#2A321F"/>
</linearGradient>
<linearGradient id="paint3_linear_52_68" x1="92.4885" y1="130.689" x2="92.4885" y2="187.149" gradientUnits="userSpaceOnUse">
<stop stop-color="#F4D261"/>
<stop offset="1" stop-color="#F59726"/>
</linearGradient>
<linearGradient id="paint4_linear_52_68" x1="243.971" y1="141.371" x2="243.971" y2="188.519" gradientUnits="userSpaceOnUse">
<stop stop-color="#F4D261"/>
<stop offset="1" stop-color="#F59726"/>
</linearGradient>
<linearGradient id="paint5_linear_52_68" x1="168.106" y1="119.432" x2="168.106" y2="185.723" gradientUnits="userSpaceOnUse">
<stop stop-color="#F4D261"/>
<stop offset="1" stop-color="#F59726"/>
</linearGradient>
<linearGradient id="paint6_linear_52_68" x1="27.2094" y1="178.018" x2="27.2094" y2="183.376" gradientUnits="userSpaceOnUse">
<stop stop-color="#D9D9D9"/>
<stop offset="1" stop-color="#737373"/>
</linearGradient>
<radialGradient id="paint7_radial_52_68" cx="0" cy="0" r="1" gradientUnits="userSpaceOnUse" gradientTransform="translate(140.798 172.621) rotate(90) scale(13.7431 5.97491)">
<stop stop-color="#819860"/>
<stop offset="1" stop-color="#475534"/>
</radialGradient>
<radialGradient id="paint8_radial_52_68" cx="0" cy="0" r="1" gradientUnits="userSpaceOnUse" gradientTransform="translate(216.676 172.073) rotate(90) scale(13.7431 5.97491)">
<stop stop-color="#396E72"/>
<stop offset="1" stop-color="#475534"/>
</radialGradient>
<linearGradient id="paint9_linear_52_68" x1="25.5692" y1="89.5743" x2="25.5692" y2="173.848" gradientUnits="userSpaceOnUse">
<stop stop-color="#819860"/>
<stop offset="1" stop-color="#2A321F"/>
</linearGradient>
<linearGradient id="paint10_linear_52_68" x1="30.0211" y1="84.3699" x2="30.0211" y2="171.89" gradientUnits="userSpaceOnUse">
<stop offset="0.305" stop-color="#475534"/>
<stop offset="1" stop-color="#819860"/>
</linearGradient>
<linearGradient id="paint11_linear_52_68" x1="37.4305" y1="74.7823" x2="37.4305" y2="171.787" gradientUnits="userSpaceOnUse">
<stop stop-color="#819860"/>
<stop offset="1" stop-color="#475534"/>
<stop offset="1.0001" stop-color="#2A321F"/>
</linearGradient>
<linearGradient id="paint12_linear_52_68" x1="131.401" y1="148.743" x2="131.401" y2="182.068" gradientUnits="userSpaceOnUse">
<stop stop-color="#819860"/>
<stop offset="1" stop-color="#475534"/>
</linearGradient>
<linearGradient id="paint13_linear_52_68" x1="210.288" y1="148.908" x2="205.84" y2="181.935" gradientUnits="userSpaceOnUse">
<stop stop-color="#819860"/>
<stop offset="1" stop-color="#475534"/>
</linearGradient>
<linearGradient id="paint14_linear_52_68" x1="23.5195" y1="175.694" x2="23.5195" y2="181.601" gradientUnits="userSpaceOnUse">
<stop stop-color="#D9D9D9"/>
<stop offset="1" stop-color="#737373"/>
</linearGradient>
<linearGradient id="paint15_linear_52_68" x1="43.3315" y1="172.575" x2="43.3315" y2="187.093" gradientUnits="userSpaceOnUse">
<stop stop-color="#D9D9D9"/>
<stop offset="1" stop-color="#737373"/>
</linearGradient>
<linearGradient id="paint16_linear_52_68" x1="269.632" y1="176.279" x2="272.941" y2="190.415" gradientUnits="userSpaceOnUse">
<stop stop-color="#D9D9D9"/>
<stop offset="1" stop-color="#737373"/>
</linearGradient>
<radialGradient id="paint17_radial_52_68" cx="0" cy="0" r="1" gradientUnits="userSpaceOnUse" gradientTransform="translate(122.576 185.638) rotate(-89.8295) scale(9.14948 14.7482)">
<stop stop-color="#D9D9D9"/>
<stop offset="0.875" stop-color="#7854C5"/>
</radialGradient>
<radialGradient id="paint18_radial_52_68" cx="0" cy="0" r="1" gradientUnits="userSpaceOnUse" gradientTransform="translate(122.567 185.716) rotate(-78.162) scale(5.04063 7.96557)">
<stop stop-color="#D9D9D9"/>
<stop offset="0.575" stop-color="#E5D8FF"/>
</radialGradient>
<radialGradient id="paint19_radial_52_68" cx="0" cy="0" r="1" gradientUnits="userSpaceOnUse" gradientTransform="translate(122.164 185.687) rotate(-76.6848) scale(6.92109 10.8638)">
<stop stop-color="#D9D9D9"/>
<stop offset="1" stop-color="#580AFF"/>
</radialGradient>
<radialGradient id="paint20_radial_52_68" cx="0" cy="0" r="1" gradientUnits="userSpaceOnUse" gradientTransform="translate(122.212 185.718) rotate(-89.5466) scale(2.42681 4.11187)">
<stop stop-color="#F48D1B"/>
<stop offset="1" stop-color="#F3EE7E"/>
</radialGradient>
<radialGradient id="paint21_radial_52_68" cx="0" cy="0" r="1" gradientUnits="userSpaceOnUse" gradientTransform="translate(284.891 181.304) rotate(-52.398) scale(16.2958 16.2217)">
<stop stop-color="#D9D9D9"/>
<stop offset="0.875" stop-color="#7854C5"/>
</radialGradient>
<radialGradient id="paint22_radial_52_68" cx="0" cy="0" r="1" gradientUnits="userSpaceOnUse" gradientTransform="translate(284.799 181.41) rotate(-45.1352) scale(8.86887)">
<stop stop-color="#D9D9D9"/>
<stop offset="0.575" stop-color="#E5D8FF"/>
</radialGradient>
<radialGradient id="paint23_radial_52_68" cx="0" cy="0" r="1" gradientUnits="userSpaceOnUse" gradientTransform="translate(284.476 181.101) rotate(-44.1973) scale(12.1366)">
<stop stop-color="#D9D9D9"/>
<stop offset="1" stop-color="#580AFF"/>
</radialGradient>
<radialGradient id="paint24_radial_52_68" cx="0" cy="0" r="1" gradientUnits="userSpaceOnUse" gradientTransform="translate(284.485 181.178) rotate(-52.2234) scale(4.32233 4.52264)">
<stop stop-color="#F48D1B"/>
<stop offset="1" stop-color="#F3EE7E"/>
</radialGradient>
<linearGradient id="paint25_linear_52_68" x1="268.044" y1="48.5416" x2="293.608" y2="72.0687" gradientUnits="userSpaceOnUse">
<stop offset="0.399447" stop-color="#F5B242"/>
<stop offset="1" stop-color="#6948B2"/>
</linearGradient>
<linearGradient id="paint26_linear_52_68" x1="261.47" y1="104.697" x2="287.034" y2="128.224" gradientUnits="userSpaceOnUse">
<stop offset="0.399447" stop-color="#F5B242"/>
<stop offset="1" stop-color="#6948B2"/>
</linearGradient>
<linearGradient id="paint27_linear_52_68" x1="78.3218" y1="98.1224" x2="52.7582" y2="121.65" gradientUnits="userSpaceOnUse">
<stop offset="0.399447" stop-color="#F5B242"/>
<stop offset="1" stop-color="#6948B2"/>
</linearGradient>
<linearGradient id="paint28_linear_52_68" x1="70.7984" y1="43.611" x2="45.2348" y2="67.1381" gradientUnits="userSpaceOnUse">
<stop offset="0.399447" stop-color="#F5B242"/>
<stop offset="1" stop-color="#6948B2"/>
</linearGradient>
<linearGradient id="paint29_linear_52_68" x1="245.827" y1="22.0104" x2="271.457" y2="45.4647" gradientUnits="userSpaceOnUse">
<stop offset="0.399447" stop-color="#F5B242"/>
<stop offset="1" stop-color="#6948B2"/>
</linearGradient>
<linearGradient id="paint30_linear_52_68" x1="93.016" y1="17.0799" x2="67.3855" y2="40.5341" gradientUnits="userSpaceOnUse">
<stop offset="0.399447" stop-color="#F5B242"/>
<stop offset="1" stop-color="#6948B2"/>
</linearGradient>
<linearGradient id="paint31_linear_52_68" x1="299.479" y1="103.841" x2="291.982" y2="137.764" gradientUnits="userSpaceOnUse">
<stop offset="0.399447" stop-color="#F5B242"/>
<stop offset="1" stop-color="#6948B2"/>
</linearGradient>
<linearGradient id="paint32_linear_52_68" x1="37.4462" y1="97.7486" x2="44.9437" y2="131.672" gradientUnits="userSpaceOnUse">
<stop offset="0.399447" stop-color="#F5B242"/>
<stop offset="1" stop-color="#6948B2"/>
</linearGradient>
<linearGradient id="paint33_linear_52_68" x1="264.591" y1="78.2863" x2="297.072" y2="90.6164" gradientUnits="userSpaceOnUse">
<stop offset="0.399447" stop-color="#F5B242"/>
<stop offset="1" stop-color="#6948B2"/>
</linearGradient>
<linearGradient id="paint34_linear_52_68" x1="74.2515" y1="73.3557" x2="41.7708" y2="85.6859" gradientUnits="userSpaceOnUse">
<stop offset="0.399447" stop-color="#F5B242"/>
<stop offset="1" stop-color="#6948B2"/>
</linearGradient>
<radialGradient id="paint35_radial_52_68" cx="0" cy="0" r="1" gradientUnits="userSpaceOnUse" gradientTransform="translate(193.05 187.092) rotate(-3.24343) scale(22.0011 13.2144)">
<stop stop-color="#D9D9D9"/>
<stop offset="0.875" stop-color="#7854C5"/>
</radialGradient>
<radialGradient id="paint36_radial_52_68" cx="0" cy="0" r="1" gradientUnits="userSpaceOnUse" gradientTransform="translate(192.86 187.096) rotate(1.15262) scale(11.9159 7.25988)">
<stop stop-color="#D9D9D9"/>
<stop offset="0.575" stop-color="#E5D8FF"/>
</radialGradient>
<radialGradient id="paint37_radial_52_68" cx="0" cy="0" r="1" gradientUnits="userSpaceOnUse" gradientTransform="translate(192.903 186.731) rotate(1.72477) scale(16.2839 9.9484)">
<stop stop-color="#D9D9D9"/>
<stop offset="1" stop-color="#580AFF"/>
</radialGradient>
<radialGradient id="paint38_radial_52_68" cx="0" cy="0" r="1" gradientUnits="userSpaceOnUse" gradientTransform="translate(192.831 186.779) rotate(-3.13803) scale(5.83565 3.68418)">
<stop stop-color="#F48D1B"/>
<stop offset="1" stop-color="#F3EE7E"/>
</radialGradient>
<radialGradient id="paint39_radial_52_68" cx="0" cy="0" r="1" gradientUnits="userSpaceOnUse" gradientTransform="translate(55.4979 182.851) rotate(-3.23726) scale(16.8266 9.51426)">
<stop stop-color="#D9D9D9"/>
<stop offset="0.875" stop-color="#7854C5"/>
</radialGradient>
<radialGradient id="paint40_radial_52_68" cx="0" cy="0" r="1" gradientUnits="userSpaceOnUse" gradientTransform="translate(55.353 182.854) rotate(0.902067) scale(9.11045 5.22873)">
<stop stop-color="#D9D9D9"/>
<stop offset="0.575" stop-color="#E5D8FF"/>
</radialGradient>
<radialGradient id="paint41_radial_52_68" cx="0" cy="0" r="1" gradientUnits="userSpaceOnUse" gradientTransform="translate(55.3865 182.592) rotate(1.44108) scale(12.4489 7.16571)">
<stop stop-color="#D9D9D9"/>
<stop offset="1" stop-color="#580AFF"/>
</radialGradient>
<radialGradient id="paint42_radial_52_68" cx="0" cy="0" r="1" gradientUnits="userSpaceOnUse" gradientTransform="translate(55.3314 182.626) rotate(-3.13803) scale(4.46315 2.65259)">
<stop stop-color="#F48D1B"/>
<stop offset="1" stop-color="#F3EE7E"/>
</radialGradient>
</defs>
</svg>
