<svg width="154" height="166" viewBox="0 0 154 166" fill="none" xmlns="http://www.w3.org/2000/svg">
<path d="M64.0522 44.6719C54.9359 24.6162 57.8108 18.7397 60.0899 14.1816C64.6482 7.3444 69.206 6.80331 78.3223 9.08237C85.6153 10.9056 93.9091 22.4645 99.227 28.542C103.392 32.7809 106.645 31.3679 114.787 41.6119C123.047 52.0028 112.969 54.7349 108.411 53.9753C108.411 53.9753 110.835 67.9913 108.411 78.663C105.988 89.3346 99.7269 98.6807 96.3206 102.768C89.3125 111.178 74.6199 123.59 72.3408 125.869C70.0618 128.148 76.9669 146.653 79.246 153.49C81.5251 160.327 78.2662 167.097 67.521 163.303C65.5462 162.605 60.2946 157.288 59.5349 153.49L57.7593 152.321C50.4663 152.321 50.489 143.491 51.2487 138.173C49.7293 130.576 57.1581 116.422 65.6334 104.979C74.6049 92.8655 74.0934 78.5429 74.0934 73.9848C70.279 79.3276 65.5715 78.0203 64.0522 76.5009C54.9359 63.7382 60.2537 50.7494 64.0522 44.6719Z" fill="white"/>
<path d="M73.662 160.475C73.1355 160.771 72.2703 161.037 71.1212 160.639C67.116 159.256 62.1687 150.383 59.946 145.865C59.8957 146.276 59.8893 146.782 59.9473 147.402C59.9977 147.867 60.1387 149.295 59.0551 149.905C58.8109 150.043 57.9395 150.423 56.9281 149.555C55.6628 148.469 53.9788 145.015 55.1122 141.994C55.2889 141.523 55.1888 140.845 55.0481 139.899C54.4175 135.621 53.2525 127.663 70.1689 105.782C70.7042 104.948 80.645 88.8859 74.0797 65.8067C73.2967 69.253 71.9792 73.2315 69.9418 74.379C69.3924 74.6885 68.8104 74.8152 68.2188 74.7463C67.1582 74.63 63.6306 73.4707 62.6978 63.4622C62.5949 62.7261 62.0608 56.9056 68.2958 44.7398C68.4137 43.9497 67.2047 40.982 66.2364 38.6024C62.9732 30.5597 58.0453 18.4188 66.228 12.9057C66.3949 12.7916 66.5737 12.6808 66.7492 12.582C68.9698 11.3313 71.7134 11.2235 74.9051 12.2504C83.8503 15.1228 94.0598 26.0581 97.2911 32.4201C100.422 33.5715 115.819 39.7257 113.674 48.8547C113.644 48.9621 113.609 49.0618 113.555 49.1625C113.465 49.3238 113.133 49.8931 112.369 50.3229C110.294 51.4919 107.459 50.5454 103.917 47.5045C106.256 55.9771 109.233 73.1669 100.852 88.411C89.5736 108.915 74.1376 118.986 73.4875 119.402C73.4646 119.415 73.4417 119.428 73.4188 119.441C73.3731 119.467 73.3273 119.493 73.2772 119.511C73.2619 119.519 73.1584 119.568 73.0058 119.654C71.3804 120.569 66.2768 124.428 68.7893 135.618C70.1307 141.587 71.9598 145.994 73.4282 149.53C75.4617 154.425 76.8016 157.661 74.2219 160.059C74.046 160.228 73.8452 160.371 73.6392 160.487L73.662 160.475Z" fill="url(#paint0_linear_81_51)"/>
<path d="M102.013 124.952C109.337 122.874 121.202 111.372 121.202 97.0954" stroke="white" stroke-width="4" stroke-linecap="round"/>
<path d="M104.292 142.197C116.56 138.103 136.649 116.2 137.026 89.4043" stroke="white" stroke-width="4" stroke-linecap="round"/>
<defs>
<linearGradient id="paint0_linear_81_51" x1="80.0424" y1="17.125" x2="100.173" y2="134.089" gradientUnits="userSpaceOnUse">
<stop offset="0.415" stop-color="#DDCDFF"/>
<stop offset="1" stop-color="#7050B7"/>
</linearGradient>
</defs>
</svg>
